<svg id="logo_greenbaypackers" xmlns="http://www.w3.org/2000/svg" width="60" height="60" viewBox="0 0 60 60">
  <path id="Path_56" data-name="Path 56" d="M0,0H60V60H0Z" fill="none"/>
  <path id="Path_57" data-name="Path 57" d="M29.843,12.271C15.293,12.272,3,20.424,3,30.073,3,40.117,14.541,47.691,29.843,47.691c8.931,0,17.4-3.138,22.651-8.393,2.891-2.892,4.481-6.17,4.478-9.225,0-4.758-2.8-9.226-7.883-12.584s-11.927-5.219-19.246-5.219" fill="#ffb612"/>
  <path id="Path_58" data-name="Path 58" d="M11.071,41.871c-4.668-3.113-7.24-7.3-7.24-11.8,0-9.04,12.155-16.97,26.011-16.971,14.493,0,26.289,7.613,26.3,16.971,0,2.835-1.5,5.9-4.236,8.638-5.1,5.1-13.347,8.149-22.063,8.149-7.282,0-13.949-1.773-18.771-4.989" fill="#203731"/>
  <path id="Path_59" data-name="Path 59" d="M41.487,25.411c-2.09-3.111-6.665-5.269-12.053-5.269-7.395,0-13.391,4.066-13.391,9.081s4.232,9.418,13.391,9.413c5.5,0,9.921-2.377,11.987-5.5L25.8,33.167l-.048-4.057L52.869,29.1a8.606,8.606,0,0,1,.075.972c0,7.808-10.343,14.138-23.1,14.138s-23.1-6.329-23.1-14.138S17.7,15.7,29.843,15.649c10.107-.039,18.7,4.136,21.832,9.756l-10.187.006" fill="#fffffe"/>
</svg>
