<svg id="logo_arizonacardinals" xmlns="http://www.w3.org/2000/svg" width="60" height="60" viewBox="0 0 60 60">
  <path id="Path_82" data-name="Path 82" d="M0,0H60V60H0Z" fill="none"/>
  <path id="Path_83" data-name="Path 83" d="M55.021,44.784c-3.744-.789-11.172-.02-15.408,8.945,0,0-7.244-8.651-17.31-10.171.4-4.813-5.98-6.093-7.2-14.374A28.022,28.022,0,0,1,7.674,18.74l1.319.424a21.176,21.176,0,0,1-3.406-5.81l1.394.46S5.571,11.9,4.8,6.418c17.085,11.756,26.086,7.653,36.477,13.535,7.053,4,8.733,8.637,9.324,13.269,0,0,5.221,4.732,4.42,11.562" fill="#fffffe"/>
  <path id="Path_84" data-name="Path 84" d="M54.308,43.783c.112-5.814-4.452-9.944-4.452-9.944-.493-3.675-1.828-8.991-8.941-12.916-10.8-5.955-16.777-1.091-33.8-11.526a15,15,0,0,0,2.906,6.327l-1.76-.578a18.5,18.5,0,0,0,4.4,5.941l-1.973-.62A21.114,21.114,0,0,0,16.86,28.64c.931,7.857,6.691,9.2,7.157,14.028,7.505,1.164,15.438,9.2,15.438,9.2,4.153-7.143,9.945-8.528,14.853-8.091"/>
  <path id="Path_85" data-name="Path 85" d="M44.7,33.67c-1.632,2.628-4.391,1.9-5.375-1.381l1.989.121a18.073,18.073,0,0,1-4.553-4.094c-.36,7.24,6.449,10.49,8.7,5.405a6.6,6.6,0,0,1-.763-.051" fill="#fffffe"/>
  <path id="Path_86" data-name="Path 86" d="M40.012,21.908c-7.825-4.291-17.388-1.5-29.607-9.079,1.211,3.619,8.774,7.858,8.774,7.858l-6.693-2.177c1.7,2.959,8.681,6.667,8.681,6.667L14.926,23.16c2.585,4.3,8.45,7.2,8.45,7.2l-3.6-.261c.466,4.039,6.044,7.517,6.34,10.634a29.569,29.569,0,0,1,8.308,4.827c4.845-2.383,3.509-10.445-5.728-21.881,12.7.768,12.355,10.192,19.647,8.837-.535-2.532-.88-6.517-8.327-10.6" fill="#97233f"/>
  <path id="Path_87" data-name="Path 87" d="M53.4,42.283c-1.779-1.772-5.515-3.58-10.06-4.125,1.936-.538,4.139-1.726,5.042-3.574a12.957,12.957,0,0,1,5.018,7.7Zm-9.726,2.47a6.768,6.768,0,0,0-.613-4.866,15.582,15.582,0,0,1,10.155,2.964,15.091,15.091,0,0,0-9.542,1.9Z" fill="#ffb612"/>
  <path id="Path_88" data-name="Path 88" d="M44.7,33.67c-1.632,2.628-4.391,1.9-5.375-1.381l1.989.121a18.073,18.073,0,0,1-4.553-4.094c-.36,7.24,6.449,10.49,8.7,5.405a6.6,6.6,0,0,1-.763-.051" fill="#fffffe"/>
</svg>
