<svg id="logo_seattleseahawks" xmlns="http://www.w3.org/2000/svg" width="60" height="60" viewBox="0 0 60 60">
  <path id="Path_94" data-name="Path 94" d="M0,0H60V60H0Z" fill="none"/>
  <path id="Path_95" data-name="Path 95" d="M49.473,38.087a44.764,44.764,0,0,0-7.527-.664l-34.638.008c-2.155,0-4.384,0-5.527-1.761-1.16-1.786-.53-3.544,1.427-7.061C3.353,28.349,9.286,17.2,9.286,17.2A9.11,9.11,0,0,0,10.5,18.432a4.038,4.038,0,0,0,2.876.725c2.936,0,21.875-.041,22.068-.043,3.844,0,7.728.4,10.244,3.156a30.206,30.206,0,0,1,9,2.357A6.831,6.831,0,0,1,58.57,28.82,6.1,6.1,0,0,1,58.8,30.5a10.405,10.405,0,0,1-1.865,5.48,17.756,17.756,0,0,1-5.124,5.6,5.939,5.939,0,0,1-2.919,1.092,9.463,9.463,0,0,0,1.73-2.94c.437-1.47-1.148-1.644-1.148-1.644" fill="#fffffe"/>
  <path id="Path_96" data-name="Path 96" d="M54.26,25.524c3.96,1.893,4.655,5.51,1.838,9.926a19.873,19.873,0,0,1-5.078,5.637s2.458-3.212-1.353-3.974a46.272,46.272,0,0,0-7.721-.682c-1.352,0-13.433.028-14.941.028s-1.924-.206-2.255-.66-.388-1.073.231-2,1.563-2.383,1.563-2.383l-4.073-3.275c3.417-3.408,6.147-4.551,8.53-4.551,2.416,0,3.481.355,7.458,2.023s5.292-.106,5.292-.106c-1.67.71-3.162.106-5.968-1.136s-4.474-1.81-6.995-1.81a11.563,11.563,0,0,0-7.321,2.671c-2.513,1.847-2.7,2.227-6.492,2.227H4.939l4.636-8.675s.347,1.371,3.8,1.371c2.971,0,22.068-.042,22.068-.042,3.792,0,7.543.4,9.764,3.114a30.024,30.024,0,0,1,9.049,2.3Zm-7,.711C45.46,25.8,47,24.762,47,24.762a5.154,5.154,0,0,0-3.78,3.228c-.042.08-.084.162-.128.249-1.434,2.884-2.726,2.73-5.175,2.73H33.723c-3.4,0-4.98,1.683-6.608,4.549h1.919c1.754-2.61,3.077-3.313,6.546-3.509a39.392,39.392,0,0,1,17.584,4.014c4.749-7.97-2.3-9.29-5.9-9.788ZM32.51,35.487C33.4,34.148,35.2,33.693,38.1,33.86a45.3,45.3,0,0,1,14.5,3c-3.95-2.311-10.99-3.977-15.883-3.961-2.391.007-4.479.425-5.706,2.584h1.5Zm7.7-7.907c-.935,1.3-2.166,1.748-5.657,1.51-4.062-.276-3.014-1.986-2.541-2.828l-.014,0c.129-.238.351-.643.575-1.05a7.562,7.562,0,0,0-5.386,2.2c2.32,2.294,3.868,2.534,5.967,2.534h3.924c3.649,0,4.53-1.641,4.865-2.37a6.893,6.893,0,0,1-1.734,0Z" fill="#024"/>
  <path id="Path_97" data-name="Path 97" d="M38.435,27.192l-.228-.093a1.9,1.9,0,0,1-1.573.518c-.787-.1-1.24-.672-1.017-1.275a1.081,1.081,0,0,1,.135-.251c-.4-.158-.808-.31-1.2-.448-.808,1.307-1.282,2.173,1.523,2.41,1.747.149,2.221-.15,2.589-.777-.075-.029-.148-.054-.226-.085" fill="#69be28"/>
  <path id="Path_98" data-name="Path 98" d="M24.346,32.158c-1.447,2.51-2.021,3.087-1,4.278H7.308c-2.365,0-3.9-.089-4.693-1.308C1.846,33.946,2,32.817,4.077,29.093H17.709c2.347,0,2.95.134,4.224,1.121s2.413,1.944,2.413,1.944" fill="#a5acaf"/>
</svg>
