<svg id="logo_tampabaybuccaneers" xmlns="http://www.w3.org/2000/svg" width="60" height="60" viewBox="0 0 60 60">
  <path id="Path_105" data-name="Path 105" d="M0,0H60V60H0Z" fill="none" fill-rule="evenodd"/>
  <g id="Group_42" data-name="Group 42" transform="translate(4.2 7.08)">
    <path id="Path_106" data-name="Path 106" d="M39.772,33.586c-1.17,1.77-2.283,3.4-3.188,4.711a2.632,2.632,0,0,1,.985,2.165,3.506,3.506,0,0,1-1.2,2.533,4.155,4.155,0,0,1-2.681.9,8.292,8.292,0,0,1-1.005-.08,1.428,1.428,0,0,1-.651.485,1.4,1.4,0,0,1-.155.313,1.45,1.45,0,0,1-1.205.648,1.717,1.717,0,0,1-.8-.24,1.447,1.447,0,0,1-.652-1.207V43.8a1.43,1.43,0,0,1,.164-.657c-.049-.116-.22-.807-.22-.807l.447-.394a1.465,1.465,0,0,0,.271-.614,13.236,13.236,0,0,1,.618-1.751,20.945,20.945,0,0,1,1.426-2.512.514.514,0,0,0-.419-.344,1.14,1.14,0,0,1-.57-.354,1.02,1.02,0,0,1-.244-.9,1.087,1.087,0,0,1,.6-.785h0a1.214,1.214,0,0,1,.707-.086,2.713,2.713,0,0,1,1.619.95c.927-1.293,3.083-4.5,3.129-4.571a24.031,24.031,0,0,1-8.171.211c-4.409-.732-7.8-3.079-9.993-4.149A16.392,16.392,0,0,0,7.9,25.97C3.594,27.066.751,31.032.751,31.032c1.286-9.059,6.9-10.585,7.435-10.738a2.861,2.861,0,0,0-.65-4.677,11.634,11.634,0,0,1-1.6-1.22,6.782,6.782,0,0,0,2.472-.376,7.938,7.938,0,0,1,1.6-.437,4.873,4.873,0,0,0-1.658-.939,11.879,11.879,0,0,0,3.536-.845c.969-.437,1.5-1.22,1.344-1.564S12.2,10.08,12.2,10.08a2.064,2.064,0,0,1,1.064-.657,6.169,6.169,0,0,0-3.731,1.05,9.508,9.508,0,0,1,1.029-1.441c-.3.1-1.129.358-1.181.374C12.758,6.8,16.53,4.5,21.815,4.468S32.248,6.8,35.678,7.9s5.254,1.652,8.96,1.1A12.383,12.383,0,0,0,49.1,7.331,15.653,15.653,0,0,0,49.961,2.4a9.729,9.729,0,0,1,.959,4.376c.01,9.146-4.422,15.825-5.838,18.257C43.727,27.425,41.948,30.289,39.772,33.586ZM49.518,0a18.949,18.949,0,0,1-.3,4.212C48.821,6.157,48.6,6.9,48.6,6.9a12.318,12.318,0,0,1-4.234,1.445C40.615,8.969,37.211,7.961,33.5,6.5s-8.69-3.03-13.3-2.5A20.588,20.588,0,0,0,10.814,7.51,9.486,9.486,0,0,1,7.34,9.42a6.852,6.852,0,0,0,1.737.451A5.244,5.244,0,0,0,8.9,11.4s2.431-1.112,2.71-.59-.868.87-1.667,1.077a16.553,16.553,0,0,1-2.884.173,7.766,7.766,0,0,1,1.323,1.283,8.143,8.143,0,0,1-3.893.524s-.068.759,1.617,2a2.884,2.884,0,0,0-1.095.637,3.261,3.261,0,0,1,2.875.872,1.453,1.453,0,0,1,.355,1.108c-.061.751-.348,1.037-1.055,1.5a8.676,8.676,0,0,0-1.25.624,11.884,11.884,0,0,0-4.383,5.112A16.318,16.318,0,0,0,.529,28.633a16.045,16.045,0,0,0-.393,2.339c-.057.53-.136,2.2-.136,2.2s.876-1.227,1.287-1.816A13.261,13.261,0,0,1,8.06,26.569a14.447,14.447,0,0,1,3.558-.435A15.92,15.92,0,0,1,18.305,27.6c2.119,1.026,5.6,3.446,10.165,4.2a21.219,21.219,0,0,0,3.434.265,26.306,26.306,0,0,0,3.536-.246q-1.01,1.507-1.932,2.813a2.632,2.632,0,0,0-1.466-.654A1.8,1.8,0,0,0,30.5,34.5a1.689,1.689,0,0,0-.423.858,1.816,1.816,0,0,0,.073.875,1.67,1.67,0,0,0,.931.993,11.6,11.6,0,0,0-1.93,4.288l-.683.6.246,1a2.017,2.017,0,0,0,.991,2.523,2.244,2.244,0,0,0,1.519.162,2.07,2.07,0,0,0,1.165-.847,1.956,1.956,0,0,0,.116-.2,2.162,2.162,0,0,0,.413-.287c.216.024.768.041.768.041a4.777,4.777,0,0,0,3.082-1.047,4.13,4.13,0,0,0,1.422-2.994,3.05,3.05,0,0,0-.819-2.223c5.467-8.027,9.016-13.194,11.282-18.452,6-13.936.882-19.747.86-19.8Z" fill="#b1babf" fill-rule="evenodd"/>
    <path id="Path_107" data-name="Path 107" d="M31.5,40.787l0,.007a0,0,0,0,0,0,0l0-.006S31.5,40.788,31.5,40.787ZM42.417,28.222c-2.406,1.121-7.958,2.98-13.486,1.948a21.7,21.7,0,0,1-7.8-2.99c-2.2-1.33-4.569-2.6-10.1-2.578a13.521,13.521,0,0,0-8.459,2.87c2.486-8.109,9.833-6.924,9.833-6.924a5.732,5.732,0,0,0-2.951-.4,3.463,3.463,0,0,0-1.407-5.317,15.359,15.359,0,0,0,2.439-.657,13.651,13.651,0,0,1,2.041-.423,6.046,6.046,0,0,0-1.885-.766,4.808,4.808,0,0,0,3.41-1.534c.3-.307,1.1-1.843.187-2.439-.843-.548-2.515.061-2.516.062s5.006-5.394,15.332-3.09c4.9,1.094,10.421,3.962,15.519,3.993,1.714.011,5.494-.546,7.751-2.817C50.2,11.48,49.4,17.523,42.417,28.222Zm-6.5,9.494L35.9,37.7c-.131-.119-.3-.262-.486-.418.3-.434,3.8-5.625,4.819-7.235.358-.126.706-.264,1.05-.409C40.587,30.733,36.81,36.424,35.917,37.716Zm-.183,4.544a3.246,3.246,0,0,1-2.119.66,3.637,3.637,0,0,1-1.753-.395.065.065,0,0,0,0,.016c-.037.032-.113.2-.664.287a1.276,1.276,0,0,1-.606-.021.952.952,0,0,0,1.238.243,1.049,1.049,0,0,0,.068.2s-.2.287-.79.188a1.016,1.016,0,0,1-.194-.054c.012.006.022.011.034.018a.5.5,0,1,1-.134-.061,1.1,1.1,0,0,1-.561-.663c.57-.505.552-1.421,1.134-2.693.027-.058.056-.118.085-.177a.015.015,0,0,1,0,.006,2.922,2.922,0,0,0-.2,1.256,1.81,1.81,0,0,0,.048.241h0c.008.035.2.826.738.7l-.084.188a3.236,3.236,0,0,0,1.68.411,2.17,2.17,0,0,0,2.171-1.451,1.54,1.54,0,0,0-.565-1.5.7.7,0,0,0,.133-.706c.044.145-.229.4-.517.379a.406.406,0,0,1-.079-.014,5.565,5.565,0,0,1-1.348-.963,1.391,1.391,0,0,1-.531-1.142,1.417,1.417,0,0,0-.438-1.061,1.344,1.344,0,0,0-.716-.363c-.094-.025-.121-.084-.111-.147.019-.1.152-.084.152-.084a2.606,2.606,0,0,1,1.506,1.18c.119.212,1.376,1.194,1.862,1.624a3.762,3.762,0,0,1,1.388,1.695A2.41,2.41,0,0,1,35.735,42.26Zm-1.418-2.1a1.07,1.07,0,0,1,.485.449.4.4,0,0,1,.04.177.931.931,0,0,1-.551.732,1.891,1.891,0,0,1-.7.118c-.079,0-.156,0-.231-.011.07-.118.155-.261.25-.415C33.825,40.863,34.088,40.458,34.316,40.16ZM32.1,38.632c.21-.357.431-.707.655-1.055l.032-.048a2.215,2.215,0,0,0,.1.866,1.55,1.55,0,0,0,.395.558c.174.16.32.289.441.39-.588.76-1.422,2.182-1.422,2.182-.357.021-.535-.1-.737-.527a1.054,1.054,0,0,1-.068-.2h0a3.047,3.047,0,0,1-.007-1.029C31.5,39.739,31.9,38.974,32.1,38.632Zm5.877-7.922c.488-.119.971-.248,1.446-.4l.041-.014c-.485.736-4.305,6.2-4.569,6.556-.021-.017-.677-.579-.7-.6C35.168,34.9,37.921,30.795,37.976,30.711ZM49.961,2.4A15.653,15.653,0,0,1,49.1,7.331,12.383,12.383,0,0,1,44.638,9c-3.706.548-5.527-.006-8.96-1.1S27.1,4.433,21.815,4.468,12.758,6.8,9.378,9.406c.052-.016.881-.275,1.181-.374A9.508,9.508,0,0,0,9.53,10.473a6.169,6.169,0,0,1,3.731-1.05,2.064,2.064,0,0,0-1.064.657s.876-.189,1.032.156-.375,1.126-1.344,1.564a11.879,11.879,0,0,1-3.536.845,4.873,4.873,0,0,1,1.658.939,7.938,7.938,0,0,0-1.6.437A6.782,6.782,0,0,1,5.94,14.4a11.634,11.634,0,0,0,1.6,1.22,2.861,2.861,0,0,1,.65,4.677c-.538.153-6.15,1.68-7.435,10.738,0,0,2.843-3.967,7.149-5.062a16.392,16.392,0,0,1,10.672,1.069c2.191,1.07,5.584,3.418,9.993,4.149a24.031,24.031,0,0,0,8.171-.211c-.046.07-2.2,3.278-3.129,4.571a2.713,2.713,0,0,0-1.619-.95,1.214,1.214,0,0,0-.707.086h0a1.087,1.087,0,0,0-.6.785,1.02,1.02,0,0,0,.244.9,1.14,1.14,0,0,0,.57.354.514.514,0,0,1,.419.344,20.945,20.945,0,0,0-1.426,2.512,13.236,13.236,0,0,0-.618,1.751,1.465,1.465,0,0,1-.271.614l-.447.394s.171.691.22.807a1.43,1.43,0,0,0-.164.657v.013a1.447,1.447,0,0,0,.652,1.207,1.717,1.717,0,0,0,.8.24,1.45,1.45,0,0,0,1.205-.648,1.4,1.4,0,0,0,.155-.313,1.428,1.428,0,0,0,.651-.485,8.292,8.292,0,0,0,1.005.08,4.155,4.155,0,0,0,2.681-.9,3.506,3.506,0,0,0,1.2-2.533,2.632,2.632,0,0,0-.985-2.165c.906-1.309,2.018-2.941,3.188-4.711,2.175-3.3,3.955-6.161,5.309-8.553C46.5,22.6,50.929,15.922,50.919,6.776A9.729,9.729,0,0,0,49.961,2.4ZM31.5,40.794a0,0,0,0,0,0,0l0-.006s0,0,0,0l0,.007Z" fill-rule="evenodd"/>
    <path id="Path_108" data-name="Path 108" d="M38.782,22.34a16.949,16.949,0,0,1-6.342,2.283c-.044.168-.3.344-.3.344a6.717,6.717,0,0,1,1.369.878,9.963,9.963,0,0,1,1.018.9c.31.208.486.15.486.15a1.388,1.388,0,0,1,.105.467.893.893,0,1,1-1.1,1.4,1.012,1.012,0,0,1-.476-.029,2.378,2.378,0,0,1-2.514-.071,1.76,1.76,0,0,1-.9-1.824,5.5,5.5,0,0,1-1.093.47,5.935,5.935,0,0,1-3.624.022A5.528,5.528,0,0,1,23.3,26a6.423,6.423,0,0,1-1.238-1.71c-.04-.084-.079-.167-.113-.247A1.743,1.743,0,0,1,20.116,25a2.38,2.38,0,0,1-2.049-1.46,1.022,1.022,0,0,1-.4-.263.918.918,0,0,1-.987-.8c-.092-.856.779-.956.957-.975a1.363,1.363,0,0,1,.364-.31s.106.154.479.174a9.816,9.816,0,0,1,1.358-.107,6.623,6.623,0,0,1,1.62.125.854.854,0,0,1-.031-.455,16.949,16.949,0,0,1-3.68-5.646c-.916-2.886-.636-3.956.477-7,0,0,.825,5.184,3.357,8.442a25.777,25.777,0,0,0,4.2,4.211h.078a2.232,2.232,0,0,1-.516-.945c-.226-.892-.6-1.721-.767-2.381a5.3,5.3,0,0,1,.208-1.983,3.6,3.6,0,0,1-.26-2.152,1.589,1.589,0,0,0,.484-.384,8.721,8.721,0,0,0,.306-2.113,3.747,3.747,0,0,1,2.484-2.9c1.586-.648,3.969.2,3.99.209s2.435.766,3.309,2.239a3.749,3.749,0,0,1,.23,3.814c-.532.985-1.044,1.541-1.03,1.87a1.568,1.568,0,0,0,.154.6,3.6,3.6,0,0,1-1.507,1.562,5.285,5.285,0,0,1-1.031,1.706c-.533.425-1.329.862-2.048,1.438a2.223,2.223,0,0,1-.957.438l.069.051a25.7,25.7,0,0,0,5.869-.822c3.985-1.072,7.77-4.71,7.77-4.71C41.675,19.567,41.252,20.59,38.782,22.34Zm3.79-12.359c-5.1-.031-10.62-2.9-15.519-3.993-10.326-2.3-15.33,3.088-15.332,3.09s1.673-.609,2.516-.062c.916.6.108,2.132-.187,2.439a4.808,4.808,0,0,1-3.41,1.534,6.046,6.046,0,0,1,1.885.766,13.651,13.651,0,0,0-2.041.423,15.359,15.359,0,0,1-2.439.657,3.463,3.463,0,0,1,1.407,5.317,5.732,5.732,0,0,1,2.951.4s-7.347-1.186-9.833,6.924a13.521,13.521,0,0,1,8.459-2.87c5.529-.024,7.9,1.248,10.1,2.578a21.7,21.7,0,0,0,7.8,2.99c5.529,1.032,11.08-.827,13.486-1.948C49.4,17.523,50.2,11.48,50.323,7.165c-2.256,2.271-6.037,2.827-7.751,2.817Z" fill="#a71930" fill-rule="evenodd"/>
    <path id="Path_109" data-name="Path 109" d="M31.468,39.805a.015.015,0,0,1,0,.006,2.922,2.922,0,0,0-.2,1.256,1.791,1.791,0,0,0,.048.241h0c-.3,1.371-.876,1.393-1.029,1.373a.263.263,0,0,1-.038-.008c.57-.505.552-1.42,1.134-2.693C31.41,39.924,31.44,39.865,31.468,39.805Zm1.318-2.276a2.224,2.224,0,0,0,.1.866,13.559,13.559,0,0,0-1.391,2.4c.01-.027,0-.014,0,0v0a3.059,3.059,0,0,1-.007-1.029c.015-.03.411-.794.613-1.136s.431-.707.655-1.055ZM39.463,30.3c-.485.736-4.306,6.2-4.569,6.555-.021-.017-.677-.579-.7-.6.974-1.353,3.727-5.462,3.782-5.546.488-.119.972-.248,1.446-.4Zm-6.326-3.98.232.185c.081.062.256.223.336.3l.2.2c.048.049.247.236.314.287a1.007,1.007,0,0,0,.157.1.749.749,0,0,0,.154.056h0l0,0a.638.638,0,0,1-.381.137.645.645,0,0,1-.147-.018.847.847,0,0,1-.188-.07,1.155,1.155,0,0,1-.11-.064l-.066-.047,0,0a.6.6,0,0,0,.013-.094.927.927,0,0,0-.065-.383A2.734,2.734,0,0,0,33.137,26.32Zm-1.284-.8.053.029.259.146q.271.157.535.326c.125.081.25.163.371.25l.046.034a1.506,1.506,0,0,1,.3.458.9.9,0,0,1,.047.472,9.973,9.973,0,0,0-1.422-1.083A.983.983,0,0,0,31.853,25.522Zm-6.463-3.173q.184.024.36.054-.1.137-.191.283.2.036.4.081.082-.149.169-.292.168.036.331.078-.075.148-.146.3.186.05.375.108.059-.158.119-.311.158.049.314.105-.045.158-.093.32.186.066.364.138.035-.165.065-.327c.1.043.207.089.311.137-.011.11-.024.221-.041.332q.186.083.364.171.014-.168.017-.335.159.082.32.175.007.168,0,.336l.191.107c0,.018,0,.035,0,.053q0,.148,0,.3c0,.029,0,.058,0,.086l-.229-.114a3.137,3.137,0,0,1-.128.511c-.114-.066-.231-.13-.349-.191a4.015,4.015,0,0,0,.123-.486q-.189-.086-.386-.168-.052.233-.125.465c-.12-.056-.242-.109-.364-.159q.072-.225.13-.449-.193-.074-.391-.144-.068.217-.141.439c-.125-.045-.25-.087-.376-.126q.075-.22.152-.434-.2-.064-.4-.12c-.059.143-.114.288-.167.436-.128-.034-.257-.065-.386-.093.054-.152.114-.3.18-.443q-.207-.052-.41-.1a3.994,3.994,0,0,0-.193.459c-.131-.023-.262-.042-.394-.058a3.133,3.133,0,0,1,.2-.48l-.252-.046.055-.081q.086-.125.179-.242l.022-.027.219.029Q25.279,22.482,25.389,22.349ZM41.4,18.331c-.02.046-.807,1.854-4.081,3.275-.146.063-.294.126-.45.187a23.006,23.006,0,0,1-3.921,1.059c-.749.135-1.507.228-2.266.291l-.5.037a6.54,6.54,0,0,0-.455-.522,23.078,23.078,0,0,0,3.049-.326,17.644,17.644,0,0,0,7.975-3.47c.112-.089.211-.17.3-.244C41.262,18.447,41.393,18.339,41.4,18.331ZM19.753,21.866l.106,0a1.735,1.735,0,0,0-.7.2l0,0a.807.807,0,0,0-.293.291c0,.008-.026.05-.032.056a.711.711,0,0,1-.755-.492.774.774,0,0,0,.162.048h0l.044.007a1.053,1.053,0,0,0,.137.009,4.286,4.286,0,0,0,.612-.065A5.423,5.423,0,0,1,19.753,21.866Zm.135,0c.084,0,.167,0,.251.008.132.006.264.016.4.028.265.024.573.059.836.1a.95.95,0,0,0-.521.387l-.006.006a9.974,9.974,0,0,0-1.788.006.907.907,0,0,1,.321-.348A1.51,1.51,0,0,1,19.889,21.868ZM18.095,10.511a17.417,17.417,0,0,0,4.463,8.395,23.134,23.134,0,0,0,2.254,2.114,6.591,6.591,0,0,0-.68.147c-.546-.482-1.81-1.727-1.876-1.791l0,0a17.414,17.414,0,0,1-2.442-3.039c-.124-.2-.22-.369-.3-.494h0l-.118-.211A8.767,8.767,0,0,1,18.095,10.511Zm7.129,6.523c.166-.139.541-.074.541-.074a1.058,1.058,0,0,1,.208.309,3.674,3.674,0,0,0,.285,1.356h0v-.012a.55.55,0,0,1,.075-.143c.061-.091.18-.219.252-.168s.062.193.06.345a.731.731,0,0,1-.091.362.485.485,0,0,0,.221.2.6.6,0,0,1,0-.141,2.439,2.439,0,0,1,.146-.4.085.085,0,0,1,.128-.058s.135.07.253.129a.157.157,0,0,1,.052.191s0,.007,0,.01l-.006.015c-.044.111-.082.213-.139.331,0,0-.029.109-.08.113a1.418,1.418,0,0,0,.144.084,1.879,1.879,0,0,0,.2.076.279.279,0,0,1-.034-.171c.027-.143.07-.34.106-.5a.1.1,0,0,1,.127-.079c.09.037.181.072.272.105a.124.124,0,0,1,.073.133c-.042.182-.089.4-.139.574a.332.332,0,0,1-.041.078.583.583,0,0,0,.137.072c.055.014.159.035.159.035a.272.272,0,0,1,.005-.146.016.016,0,0,0,0,0l.123-.351c.01-.03.039-.1.056-.14a.109.109,0,0,1,.126-.071q.161.048.323.089c.08.024.034.146.034.146l-.191.469h0a.306.306,0,0,1-.068.1.778.778,0,0,0,.13.044,1.223,1.223,0,0,0,.217.023.273.273,0,0,1,.006-.193.085.085,0,0,0,.005-.015c.036-.083.073-.166.108-.25.01-.024.019-.047.028-.071a.143.143,0,0,1,.164-.078H29.2q.113.021.226.038h0a.111.111,0,0,1,.086.155c-.068.151-.14.3-.221.455.084.007.169.011.254.014,0,0-.011-.008.024-.1s.137-.295.147-.325.049-.146.1-.152.242.149.192.446a3.693,3.693,0,0,0,1.043-.908.991.991,0,0,1,.34-.119c.082.047.318.2.359.37a3.693,3.693,0,0,1-.888.582,12.728,12.728,0,0,0-1.525.879,1.21,1.21,0,0,1-.452.172,2.083,2.083,0,0,0-1.061-.651,1.954,1.954,0,0,0-1.268-.107,1.229,1.229,0,0,1-.29-.445,12.708,12.708,0,0,0-.686-1.621A3.7,3.7,0,0,1,25.223,17.034Zm1.6-6.089c.011-.551.594-2.819,3.616-2.3.557.116,1,.251,1.121.288l.034.012c.057.018.136.044.23.079l.086.033.124.049.182.076c.063.029.128.058.2.091.147.071.3.155.463.251l.047.028a.06.06,0,0,1,.014.008,2.8,2.8,0,0,1,1.568,2.419,2.632,2.632,0,0,1-.4,1.409c-.2.28-.383.472-.477.614a1.9,1.9,0,0,1-.23-.624h0v0a2.745,2.745,0,0,0,.567,1.522l.025.025a5.4,5.4,0,0,0-.345,1.026,1.853,1.853,0,0,0,.092.8s-.038.062-.093.147a1.584,1.584,0,0,1-1.113.612,4.84,4.84,0,0,0-1.546-.23,1.038,1.038,0,0,0-.712.495h0a.522.522,0,0,0-.085.134,1.134,1.134,0,0,0-.122.39c-.066-.029-.122-.051-.122-.051a.166.166,0,0,1,0,.045.853.853,0,0,1-.021.093.075.075,0,0,1,0,.023c-.008.03-.016.059-.023.089-.03.108-.056.2-.09.3a.023.023,0,0,0,0,.007.106.106,0,0,1-.136.068l-.012,0c-.074-.037-.156-.076-.241-.117a.153.153,0,0,1-.081-.149s0,0,0-.007,0-.007,0-.011.005-.019.008-.027c.027-.1.083-.3.09-.348a.817.817,0,0,1,.07-.2.411.411,0,0,0-.091-.076.191.191,0,0,0-.105-.018.157.157,0,0,0-.044.078c0,.013-.035.119-.072.236s-.082.247-.1.306a.1.1,0,0,1-.1.078.172.172,0,0,1-.051-.008h0c-.074-.03-.175-.066-.255-.1l-.015-.005a.125.125,0,0,1-.083-.151c.041-.123.094-.279.135-.4.008-.029.019-.057.028-.087,0,0,0,0,0,0a.257.257,0,0,1,.094-.132.7.7,0,0,0-.162-.075,1.72,1.72,0,0,0-.187-.042.272.272,0,0,1,.014.15c-.014.048-.141.493-.147.51s-.029.07-.064.083a.322.322,0,0,1-.13-.018l-.016,0c-.081-.024-.2-.042-.272-.064,0,0-.125-.036-.086-.151,0,0,.082-.3.122-.442a.064.064,0,0,1,0-.013.74.74,0,0,0,.028-.16.093.093,0,0,0-.1-.111c-.042,0-.089.076-.1.121s-.038.127-.038.127h0l0,.007c0,.007-.006.015-.008.021-.044.116-.078.211-.117.327a.145.145,0,0,1-.16.088h0c-.091-.019-.179-.037-.261-.052a.038.038,0,0,1-.012,0,.106.106,0,0,1-.068-.136.016.016,0,0,1,0-.01c.036-.105.067-.19.109-.3a1.731,1.731,0,0,1,.079-.168.217.217,0,0,1,.059-.061c0-.023-.034-.067-.1-.089l-.025-.006a2.107,2.107,0,0,0,.106-.327,1.03,1.03,0,0,0-.24-.971,4.845,4.845,0,0,0-1.372-.749,1.667,1.667,0,0,1-.519-1.337,1.851,1.851,0,0,0,.553-.581,5.2,5.2,0,0,0,.344-1.025,2.7,2.7,0,0,0,1.407-.878,2.043,2.043,0,0,1-.642.393C26.845,11.619,26.818,11.347,26.826,10.945Z" fill="#fff" fill-rule="evenodd"/>
    <path id="Path_110" data-name="Path 110" d="M31.649,35.635c.019-.1.152-.084.152-.084a2.605,2.605,0,0,1,1.506,1.18c.119.212,1.376,1.195,1.862,1.625a3.761,3.761,0,0,1,1.388,1.695,2.41,2.41,0,0,1-.823,2.211,3.247,3.247,0,0,1-2.119.66,3.638,3.638,0,0,1-1.753-.395.057.057,0,0,0,0,.016c-.037.032-.113.2-.664.287a1.276,1.276,0,0,1-.606-.021.952.952,0,0,0,1.238.243,1.054,1.054,0,0,0,.068.2s-.2.287-.79.188a1.02,1.02,0,0,1-.194-.054c.012.006.022.011.034.018a.5.5,0,1,1-.134-.061,1.105,1.105,0,0,1-.561-.663.263.263,0,0,0,.038.008c.153.02.73,0,1.029-1.373.008.035.2.826.738.7l-.084.188a3.236,3.236,0,0,0,1.68.411,2.17,2.17,0,0,0,2.171-1.451,1.54,1.54,0,0,0-.565-1.5.7.7,0,0,0,.133-.706c.044.146-.229.4-.517.379a.421.421,0,0,1-.078-.014,5.565,5.565,0,0,1-1.348-.963,1.391,1.391,0,0,1-.531-1.142,1.418,1.418,0,0,0-.439-1.061,1.343,1.343,0,0,0-.716-.363C31.666,35.756,31.639,35.7,31.649,35.635Zm2.667,4.525a1.07,1.07,0,0,1,.485.449.4.4,0,0,1,.04.177.931.931,0,0,1-.551.732,1.889,1.889,0,0,1-.7.118c-.079,0-.156,0-.231-.011.07-.118.155-.261.249-.415C33.824,40.863,34.088,40.458,34.316,40.16ZM32.885,38.4a1.55,1.55,0,0,0,.395.558c.174.16.32.289.441.39-.588.76-1.422,2.182-1.422,2.182-.357.021-.535-.1-.737-.527a1.056,1.056,0,0,1-.068-.2A13.559,13.559,0,0,1,32.885,38.4Zm8.394-8.756c-.692,1.095-4.469,6.785-5.362,8.077L35.9,37.7c-.131-.119-.3-.262-.486-.418.3-.434,3.8-5.625,4.819-7.234C40.587,29.921,40.935,29.783,41.279,29.639Zm-9.461-5.385s.062-.046.1,0a.072.072,0,0,1-.017.1.782.782,0,0,0-.264.377.813.813,0,0,0,.064.657.829.829,0,0,1,.1.535.729.729,0,0,1-.058.188c-.068.146-.122.3-.184.447a1.22,1.22,0,0,1-.239.4.3.3,0,0,1-.386-.015l-.014-.01a.361.361,0,0,0,.289.3.777.777,0,0,0,.538.886,1.734,1.734,0,0,0,1.9-.352,1.583,1.583,0,0,0-.205-.176l0,0a.294.294,0,0,0,.148-.088.311.311,0,0,0,.048-.123h0l0,0,.066.047a1.155,1.155,0,0,0,.11.064.847.847,0,0,0,.188.07.645.645,0,0,0,.147.018.638.638,0,0,0,.381-.137l0,0s.011.068.011.083a.634.634,0,0,1-.087.361.284.284,0,1,1-.081.1.679.679,0,0,1-.07.067.546.546,0,0,1-.364.138.258.258,0,0,1-.088-.019.3.3,0,0,0-.012-.094c0-.008,0-.015-.006-.024a.459.459,0,0,0,.1,0,.571.571,0,0,0,.465-.456.836.836,0,0,1-.071.078.75.75,0,0,1-.577.221,2.06,2.06,0,0,1-1.945.42c-1.078-.382-1.087-1.048-1.06-1.265a2.729,2.729,0,0,1,.1-.387c.088-.273.533-1.257.535-1.41A1.492,1.492,0,0,1,31.818,24.253Zm.219,1.9a9.973,9.973,0,0,1,1.422,1.083.368.368,0,0,1-.054.147.3.3,0,0,1-.141.09,9.548,9.548,0,0,0-1.4-.78c.033-.084.072-.188.118-.317A1.6,1.6,0,0,0,32.037,26.154Zm-9.954-5.2c.058-.015.08.059.08.059a1.5,1.5,0,0,1-.251,1.069c-.09.123-.33,1.177-.424,1.447,0,0-.112.278-.156.367-.1.2-.518.716-1.608.369a2.069,2.069,0,0,1-1.3-1.506.779.779,0,0,1-.331-.631.551.551,0,0,0,.173.707c-.007,0-.065.055-.071.063a.233.233,0,0,1-.015.019.337.337,0,0,1-.188-.146.688.688,0,0,1-.1-.221.654.654,0,0,1-.02-.1s0,.007,0,.011a.284.284,0,1,1,0-.1.629.629,0,0,1,.211-.441.711.711,0,0,0,.755.492.313.313,0,0,0-.036.127.29.29,0,0,0,.065.159h-.031a.976.976,0,0,0-.243.016,1.733,1.733,0,0,0,1.3,1.426.776.776,0,0,0,.962-.381.365.365,0,0,0,.411-.063.3.3,0,0,1-.335-.222,3.127,3.127,0,0,1,.177-.935.8.8,0,0,1,.467-.553.811.811,0,0,0,.448-.485.777.777,0,0,0,.017-.46C22.025,20.993,22.049,20.964,22.083,20.955ZM41.4,18.331s-.019.058-.019.058a5.782,5.782,0,0,1-1.19,1.907,10.081,10.081,0,0,1-1.169,1.1A10.5,10.5,0,0,1,36.9,22.684a14.408,14.408,0,0,1-2.3.844,18.193,18.193,0,0,1-3.819.592,5.807,5.807,0,0,0-.347-.582,16.893,16.893,0,0,0,6.856-1.916h0l.021-.017C40.59,20.185,41.377,18.377,41.4,18.331ZM19.055,22.4a9.974,9.974,0,0,1,1.788-.006l.006-.006a.912.912,0,0,0-.1.214c-.042.13-.073.236-.1.323a9.477,9.477,0,0,0-1.583-.219.3.3,0,0,1-.058-.157A.364.364,0,0,1,19.055,22.4Zm-.96-11.892a8.767,8.767,0,0,0,1.3,5.117l0-.009,0-.008a16.776,16.776,0,0,0,4.234,5.6l.093.082a6.207,6.207,0,0,0-.627.255,2.608,2.608,0,0,1-.378-.327q-.463-.41-.9-.847a16.3,16.3,0,0,1-1.856-2.2,12.982,12.982,0,0,1-1.171-2.026,10.629,10.629,0,0,1-.736-2.16,8.13,8.13,0,0,1-.181-2.144,4.762,4.762,0,0,1,.211-1.271Zm7.379,5.211s.288.14.378.192v.009c-.011.081-.087.656-.091.932a.753.753,0,0,0,0,.1s-.374-.065-.541.074a3.7,3.7,0,0,0,.357,1,12.708,12.708,0,0,1,.686,1.621,1.229,1.229,0,0,0,.29.445,1.954,1.954,0,0,1,1.268.107,2.083,2.083,0,0,1,1.061.651,1.21,1.21,0,0,0,.452-.172,12.728,12.728,0,0,1,1.525-.879,3.693,3.693,0,0,0,.888-.582c-.04-.175-.277-.323-.359-.37l.011,0a7.8,7.8,0,0,0,.556-.878l0-.008c.1.013.417.074.417.074s-.326.759-.52,1.086a1.58,1.58,0,0,1-.538.569c-.188.132-1.016.68-1.235.834a3.79,3.79,0,0,1-1.308.767,2.33,2.33,0,0,1-.678.027,2.942,2.942,0,0,1-.611-.145h-.008a2.416,2.416,0,0,1-1.1-.684,3.292,3.292,0,0,1-.547-1.283c-.013-.046-.024-.086-.034-.118-.081-.255-.411-1.192-.481-1.41a1.566,1.566,0,0,1-.085-.778c.04-.353.216-1.081.238-1.17ZM30.189,17.9a.886.886,0,0,1,.524-.117s0,0,0,0h0a2.038,2.038,0,0,0-.106.418c-.012.114-.067.4-.067.4a.78.78,0,0,1-.46.515c-.035-.022-.081-.106.068-.582,0-.023.077-.051.094-.05l.092-.015a.531.531,0,0,0-.04-.064c-.014-.022-.05-.036-.072-.049s-.155-.071-.155-.072a1.144,1.144,0,0,1,.12-.386Zm-5.018-4.029a1.667,1.667,0,0,0,.519,1.337,4.843,4.843,0,0,1,1.372.749,1.03,1.03,0,0,1,.24.972,2.133,2.133,0,0,1-.106.327.413.413,0,0,0-.063-.011c-.062-.007-.159-.014-.18.063l0,.005a.252.252,0,0,1,.013.1.393.393,0,0,1-.018.057c-.167.468-.255.508-.3.505a.782.782,0,0,1-.056-.688.015.015,0,0,0,0-.006,3.07,3.07,0,0,1,.187-.355,1.934,1.934,0,0,0,.169-.4h0l0,0v0a1.211,1.211,0,0,1,.227.207s0,0,0,0c.031.051.079.09.106.144a.109.109,0,0,1,.013.042.482.482,0,0,0-.014-.284.038.038,0,0,1,0-.01,1.515,1.515,0,0,0-.757-.72A6.836,6.836,0,0,0,25.9,15.6c-.625-.275-.635-.458-.719-.746a1.056,1.056,0,0,1-.024-.125,2.607,2.607,0,0,1-.015-.312C25.143,14.142,25.171,13.871,25.171,13.871Zm8.471,3.021a.066.066,0,0,1-.007.012,2.009,2.009,0,0,1-.5.617c-.24.18-.358.32-1.023.162a7.215,7.215,0,0,0-.792-.152,1.171,1.171,0,0,0-1.041.231s0,0,0,0,0,0,0,0a1.041,1.041,0,0,1,.715-.5,4.834,4.834,0,0,1,1.546.23A1.583,1.583,0,0,0,33.641,16.892Zm-4.111-1.717a.46.46,0,0,1,.3.553.933.933,0,0,0-.025.395h0v.006a.77.77,0,0,0,.06.261.455.455,0,0,1,.019.319h0l-.056.168a.467.467,0,0,1-.606.252h0a.359.359,0,0,0,.23-.212.017.017,0,0,0,0-.006.281.281,0,0,0,.235-.182h0l.06-.175c.059-.179-.073-.26-.081-.55a1.11,1.11,0,0,1,.037-.468A.3.3,0,0,0,29.531,15.175Zm-.635.238a.461.461,0,0,1,.578-.257.3.3,0,0,0-.361.178,1.119,1.119,0,0,1-.255.395c-.182.227-.337.211-.4.391h0l-.059.175a.282.282,0,0,0,.076.285.019.019,0,0,0,0,.007.35.35,0,0,0,.056.308.466.466,0,0,1-.331-.565h0l.056-.168a.451.451,0,0,1,.208-.243.761.761,0,0,0,.206-.171h0l0,0A.894.894,0,0,0,28.9,15.413Zm4.542-.537h.009a4.627,4.627,0,0,1-.351,1.248c-.219.353-.428.677-.972.648,0,0,.315-.091.215-.339a.328.328,0,0,1-.017-.055,1.525,1.525,0,0,0,.395-.268,1.963,1.963,0,0,0,.374-.576,2.23,2.23,0,0,0,.1-.283s.07-.322.206-.369l.043-.006ZM29.177,14a1.578,1.578,0,0,0,1.277.429c0,.005-.024.333-.023.529s.068.956.4,1.154h0s-.082.1.024.408a1.1,1.1,0,0,1-.591-.5c-.155-.346,0-1.276-.561-1.471s-1,.652-1.335.835a1.122,1.122,0,0,1-.774.041c.256-.171.266-.294.267-.309v0c.384.042.894-.522,1.014-.68S29.177,14,29.177,14Zm-2.658-1.448.006,0h0l.03.031c.08.12-.058.418-.058.418a2.164,2.164,0,0,0-.086.266,1.65,1.65,0,0,0,.018,1c.005.011.086.151.082.155a.2.2,0,0,1-.023.018l-.025.017c-.221.13-.048.378-.034.4a1,1,0,0,1-.383-1.1,4.655,4.655,0,0,1,.472-1.207Zm5.9-3.283.123.052c3.165,1.523,2.467,3.927,2.286,4.387a6.676,6.676,0,0,1-.635,1.053A4.2,4.2,0,0,1,33.626,14c.093-.141.275-.333.477-.614a2.632,2.632,0,0,0,.4-1.409,2.8,2.8,0,0,0-1.568-2.419.06.06,0,0,0-.014-.008l-.047-.028C32.72,9.423,32.563,9.339,32.416,9.268Zm-4.909,2.726c.529-.132,1.388.669,1.893,1.091a1.563,1.563,0,0,0,1.437.482c.658-.031,1.826-.152,2.169.273a7.8,7.8,0,0,0-1.39.008,4.164,4.164,0,0,1-1.7.071,4.162,4.162,0,0,1-1.309-1.08A7.856,7.856,0,0,0,27.506,11.994ZM29.3,8.52a5.812,5.812,0,0,1,.818.059c.105.018.207.038.306.058l.015,0h0c-3.023-.515-3.606,1.753-3.616,2.3-.007.4.019.674.006.836a4.238,4.238,0,0,1-.91.251,8.346,8.346,0,0,1,.134-1.261A3.171,3.171,0,0,1,29.3,8.52Z" fill="#b1babf" fill-rule="evenodd"/>
    <path id="Path_111" data-name="Path 111" d="M27.8,8.076c1.586-.648,3.969.2,3.99.209s2.435.766,3.309,2.239a3.749,3.749,0,0,1,.23,3.814c-.532.985-1.044,1.541-1.03,1.87a1.568,1.568,0,0,0,.154.6,3.6,3.6,0,0,1-1.507,1.562,5.285,5.285,0,0,1-1.031,1.706c-.533.425-1.329.862-2.048,1.438a2.223,2.223,0,0,1-.957.438l.069.051a25.7,25.7,0,0,0,5.869-.822c3.985-1.072,7.77-4.71,7.77-4.71-.947,3.1-1.37,4.122-3.84,5.871a16.949,16.949,0,0,1-6.342,2.283c-.044.168-.3.344-.3.344a6.717,6.717,0,0,1,1.369.878,9.963,9.963,0,0,1,1.018.9.63.63,0,0,0,.484.15h0a1.388,1.388,0,0,1,.105.467.893.893,0,1,1-1.1,1.4,1.012,1.012,0,0,1-.476-.029,2.378,2.378,0,0,1-2.514-.071,1.76,1.76,0,0,1-.9-1.824,5.5,5.5,0,0,1-1.093.47,5.935,5.935,0,0,1-3.624.022A5.528,5.528,0,0,1,23.3,26a6.423,6.423,0,0,1-1.238-1.71c-.04-.084-.079-.167-.113-.247A1.743,1.743,0,0,1,20.116,25a2.38,2.38,0,0,1-2.049-1.46,1.022,1.022,0,0,1-.4-.263.918.918,0,0,1-.987-.8c-.092-.856.779-.956.957-.975a1.363,1.363,0,0,1,.364-.31s.106.154.479.174a9.816,9.816,0,0,1,1.358-.107,6.623,6.623,0,0,1,1.62.125.854.854,0,0,1-.031-.455,16.949,16.949,0,0,1-3.68-5.646c-.916-2.886-.636-3.956.477-7,0,0,.825,5.184,3.357,8.442a25.777,25.777,0,0,0,4.2,4.211h.078a2.232,2.232,0,0,1-.516-.945c-.226-.892-.6-1.721-.767-2.381a5.3,5.3,0,0,1,.208-1.983,3.6,3.6,0,0,1-.26-2.152,1.589,1.589,0,0,0,.484-.384,8.721,8.721,0,0,0,.306-2.113A3.747,3.747,0,0,1,27.8,8.076Zm4.114,16.179c-.037-.047-.1,0-.1,0a1.5,1.5,0,0,0-.446,1c0,.153-.447,1.137-.534,1.41a2.683,2.683,0,0,0-.1.386c-.027.218-.018.883,1.06,1.266a2.062,2.062,0,0,0,1.945-.419.75.75,0,0,0,.577-.221.7.7,0,0,0,.07-.078.568.568,0,0,1-.464.454.424.424,0,0,1-.1,0c0,.01,0,.016.006.025a.292.292,0,0,1,.013.093.242.242,0,0,0,.087.019.553.553,0,0,0,.365-.138.683.683,0,0,0,.069-.066.273.273,0,1,0,.082-.105.626.626,0,0,0,.086-.361.75.75,0,0,0-.011-.082h0a.832.832,0,0,1-.154-.056.984.984,0,0,1-.156-.1c-.068-.05-.266-.238-.315-.287-.065-.066-.132-.131-.2-.2s-.255-.24-.336-.3l-.226-.179a2.614,2.614,0,0,1,.434.58.922.922,0,0,1,.066.382.593.593,0,0,1-.014.094s0,0,0,0h0a.317.317,0,0,1-.048.123.3.3,0,0,1-.148.088l0,0a1.472,1.472,0,0,1,.2.176,1.733,1.733,0,0,1-1.9.351.776.776,0,0,1-.537-.887.362.362,0,0,1-.29-.3.108.108,0,0,1,.014.01.3.3,0,0,0,.386.015,1.215,1.215,0,0,0,.24-.4c.062-.149.115-.3.184-.447a.739.739,0,0,0,.057-.188.831.831,0,0,0-.1-.535.815.815,0,0,1-.065-.657.782.782,0,0,1,.264-.377A.071.071,0,0,0,31.917,24.254Zm-.064,1.268a.985.985,0,0,1,.184.632,1.629,1.629,0,0,1-.05.223c-.046.128-.085.233-.118.316a9.575,9.575,0,0,1,1.4.78.3.3,0,0,0,.141-.09.364.364,0,0,0,.053-.147.894.894,0,0,0-.047-.471,1.483,1.483,0,0,0-.3-.459l-.046-.034c-.121-.087-.245-.17-.372-.251q-.263-.169-.535-.325c-.086-.05-.172-.1-.259-.147Zm-4.571-3.765a5.22,5.22,0,0,0-4.888.971.523.523,0,0,0-.056.081s0,.01-.006.012a.285.285,0,0,0-.027.058c-.2.6,1.01,3.132,3.292,3.9s4.754-.459,4.977-1.123a.411.411,0,0,0,.019-.087,1.525,1.525,0,0,0-.1-.643A5.448,5.448,0,0,0,27.282,21.757Zm1.333,2.105a6.882,6.882,0,0,1,1.7,1.338,12.382,12.382,0,0,0-1.706-1.041Q28.618,24.01,28.615,23.862ZM22.1,20.953l-.013,0c-.034.01-.058.038-.049.093a.764.764,0,0,1-.017.46.808.808,0,0,1-.447.485.8.8,0,0,0-.467.553,3.111,3.111,0,0,0-.176.934.3.3,0,0,0,.334.223.365.365,0,0,1-.411.063.776.776,0,0,1-.963.38,1.73,1.73,0,0,1-1.3-1.426,1.018,1.018,0,0,1,.243-.016h.031a.3.3,0,0,1-.065-.159.308.308,0,0,1,.036-.127c.005-.007.028-.049.032-.056a.81.81,0,0,1,.293-.291l0,0a1.734,1.734,0,0,1,.7-.2c.005,0-.069,0-.106,0a5.325,5.325,0,0,0-.723.058,4.375,4.375,0,0,1-.612.065,1.121,1.121,0,0,1-.182-.016.827.827,0,0,1-.161-.049.627.627,0,0,0-.211.441.282.282,0,1,0,0,.1.044.044,0,0,0,0-.012.765.765,0,0,0,.02.1.661.661,0,0,0,.1.221.337.337,0,0,0,.188.147.166.166,0,0,0,.015-.02c.006-.007.059-.063.07-.063a.554.554,0,0,1-.172-.706.778.778,0,0,0,.331.631,2.069,2.069,0,0,0,1.3,1.506c1.09.347,1.51-.173,1.609-.369.044-.089.155-.367.155-.367.094-.271.334-1.324.425-1.447a1.5,1.5,0,0,0,.251-1.069s-.022-.074-.081-.059Zm19.3-2.622c0,.008-.135.117-.346.288-.09.074-.19.155-.3.244a17.646,17.646,0,0,1-7.974,3.47,23.193,23.193,0,0,1-3.05.326,6.389,6.389,0,0,1,.455.522l.5-.038c.758-.064,1.516-.155,2.266-.291a22.92,22.92,0,0,0,3.92-1.059c.156-.062.3-.124.45-.188h0l-.02.017a16.9,16.9,0,0,1-6.856,1.916,5.992,5.992,0,0,1,.347.582,18.218,18.218,0,0,0,3.818-.592,14.411,14.411,0,0,0,2.3-.844A10.49,10.49,0,0,0,39.019,21.4a10.139,10.139,0,0,0,1.169-1.1,5.778,5.778,0,0,0,1.19-1.906h0l.018-.055ZM19.888,21.868a1.5,1.5,0,0,0-.512.188.905.905,0,0,0-.322.347.367.367,0,0,0-.046.15.308.308,0,0,0,.058.157,9.49,9.49,0,0,1,1.583.22c.023-.087.055-.194.1-.324a.934.934,0,0,1,.1-.214A.946.946,0,0,1,21.37,22c-.263-.042-.571-.078-.836-.1-.132-.012-.263-.021-.4-.028C20.056,21.872,19.972,21.87,19.888,21.868Zm2.825.8a7.164,7.164,0,0,1,2.228-.041q-.093.117-.179.242A12.481,12.481,0,0,0,22.713,22.663ZM18.1,10.511l-.021.061a4.774,4.774,0,0,0-.211,1.271,8.121,8.121,0,0,0,.182,2.144,10.568,10.568,0,0,0,.737,2.161,12.859,12.859,0,0,0,1.171,2.026,16.27,16.27,0,0,0,1.856,2.2c.291.292.592.574.9.848a2.731,2.731,0,0,0,.378.327,6.273,6.273,0,0,1,.627-.256,16.837,16.837,0,0,1-4.327-5.682h0l.008.015c.038.07.076.14.118.211.076.125.172.292.3.495a17.4,17.4,0,0,0,2.442,3.04s1.318,1.3,1.878,1.793a6.582,6.582,0,0,1,.681-.147,23.309,23.309,0,0,1-2.254-2.114,17.419,17.419,0,0,1-4.462-8.4Zm7.379,5.211a.078.078,0,0,0,0,.008c-.022.09-.2.818-.238,1.171-.005.047-.008.09-.011.132a1.532,1.532,0,0,0,.1.647c.07.219.4,1.155.481,1.41.011.032.022.072.035.118a3.286,3.286,0,0,0,.547,1.284,2.425,2.425,0,0,0,1.1.684h.007a2.888,2.888,0,0,0,.612.144,2.323,2.323,0,0,0,.677-.027,3.787,3.787,0,0,0,1.309-.767c.219-.155,1.048-.7,1.235-.835a1.581,1.581,0,0,0,.538-.569c.193-.327.519-1.086.519-1.086s-.313-.062-.417-.074a.049.049,0,0,1,0,.008,7.954,7.954,0,0,1-.556.879l-.011,0a.964.964,0,0,0-.34.119,3.718,3.718,0,0,1-1.043.908c.05-.3-.142-.451-.192-.446s-.087.122-.1.152-.113.23-.147.325-.024.1-.024.1c-.085,0-.17-.007-.254-.014.081-.153.153-.3.221-.455a.108.108,0,0,0-.082-.153h0c-.075-.012-.151-.023-.226-.038H29.2a.142.142,0,0,0-.164.079L29,19.5c-.035.083-.072.167-.108.25a.036.036,0,0,1-.005.015.275.275,0,0,0-.006.193,1.255,1.255,0,0,1-.218-.023.82.82,0,0,1-.13-.045.282.282,0,0,0,.067-.1c.075-.184.191-.468.191-.468s.046-.123-.034-.147c-.108-.027-.216-.056-.323-.088a.107.107,0,0,0-.125.071c-.017.042-.046.109-.056.139l-.122.35a.01.01,0,0,1,0,.005.27.27,0,0,0-.005.145s-.1-.021-.158-.036a.565.565,0,0,1-.138-.072.3.3,0,0,0,.041-.078c.049-.174.1-.392.138-.574a.122.122,0,0,0-.073-.133c-.091-.034-.183-.069-.272-.106a.1.1,0,0,0-.127.08c-.036.165-.078.362-.105.505a.275.275,0,0,0,.034.17,1.677,1.677,0,0,1-.2-.075,1.335,1.335,0,0,1-.144-.085c.051,0,.08-.113.08-.113.056-.118.094-.22.139-.331,0-.005,0-.01.005-.015l0-.011a.156.156,0,0,0-.052-.19c-.119-.059-.253-.13-.254-.13a.085.085,0,0,0-.127.058,2.455,2.455,0,0,0-.145.4.618.618,0,0,0-.005.14.482.482,0,0,1-.221-.2.731.731,0,0,0,.091-.361c0-.153.011-.3-.061-.346s-.19.078-.252.169a.538.538,0,0,0-.074.143h0v.012a3.688,3.688,0,0,1-.286-1.356,1.047,1.047,0,0,0-.207-.309.9.9,0,0,1,0-.1c0-.277.081-.852.091-.932a.066.066,0,0,0,0-.01C25.763,15.861,25.474,15.722,25.474,15.722Zm3.83-7.2a3.171,3.171,0,0,0-3.248,2.25,8.346,8.346,0,0,0-.134,1.261,4.238,4.238,0,0,0,.91-.251,2.043,2.043,0,0,0,.642-.393,2.7,2.7,0,0,1-1.407.878,5.2,5.2,0,0,1-.344,1.025,1.851,1.851,0,0,1-.553.581s-.028.271-.028.544a2.608,2.608,0,0,0,.015.312,1.05,1.05,0,0,0,.024.125c.084.289.093.471.719.746a6.864,6.864,0,0,1,.627.308,1.515,1.515,0,0,1,.757.72.031.031,0,0,0,0,.01.483.483,0,0,1,.014.285.111.111,0,0,0-.013-.042c-.027-.054-.075-.093-.106-.144,0,0,0,0,0,0a1.2,1.2,0,0,0-.227-.207h0v0l0,0a1.934,1.934,0,0,1-.169.4,3.094,3.094,0,0,0-.187.355.015.015,0,0,1,0,.006.782.782,0,0,0,.056.688c.041,0,.13-.037.3-.505a.374.374,0,0,0,.018-.057.252.252,0,0,0-.013-.1l0-.005c.02-.076.118-.07.179-.063a.406.406,0,0,1,.063.011l.025.006c.064.022.1.066.1.089a.217.217,0,0,0-.059.061,1.731,1.731,0,0,0-.079.168c-.042.105-.073.19-.109.3a.016.016,0,0,0,0,.01.1.1,0,0,0,.064.134l0,0a.038.038,0,0,0,.012,0c.082.015.17.033.261.052a.148.148,0,0,0,.164-.087c.039-.116.073-.211.117-.327a.163.163,0,0,1,.008-.02h0l0-.007s.027-.08.038-.127.057-.121.1-.121a.093.093,0,0,1,.1.111.74.74,0,0,1-.028.16.064.064,0,0,0,0,.013c-.04.142-.122.442-.122.442-.039.115.086.151.086.151.076.021.191.039.272.064l.016,0a.322.322,0,0,0,.13.018c.035-.013.057-.066.064-.083s.133-.462.147-.51a.272.272,0,0,0-.014-.15,1.72,1.72,0,0,1,.187.042.7.7,0,0,1,.162.075.257.257,0,0,0-.094.132s0,0,0,0c-.008.03-.019.058-.028.087-.04.122-.093.278-.135.4a.125.125,0,0,0,.083.151h0l.015.005c.08.03.181.066.255.1a.168.168,0,0,0,.055.01.1.1,0,0,0,.1-.078c.019-.058.063-.188.1-.306s.071-.223.072-.236a.157.157,0,0,1,.044-.078.191.191,0,0,1,.105.018.411.411,0,0,1,.091.076.817.817,0,0,0-.07.2c-.007.048-.064.253-.09.348,0,.007-.005.018-.008.027s0,.006,0,.011,0,.005,0,.007a.153.153,0,0,0,.081.149c.085.04.167.08.241.117l.012,0A.106.106,0,0,0,29.8,18.8a.023.023,0,0,1,0-.007c.034-.106.061-.194.09-.3.007-.03.016-.059.023-.089a.075.075,0,0,0,0-.023.853.853,0,0,0,.021-.093.166.166,0,0,0,0-.045s.056.022.122.051c0,0,.13.058.155.072s.058.027.072.05a.49.49,0,0,1,.04.063h0l-.092.015c-.017,0-.093.027-.093.05-.149.476-.1.56-.068.582a.778.778,0,0,0,.46-.514s.055-.29.067-.4a2,2,0,0,1,.106-.418h0s0,0,0,0a.887.887,0,0,0-.525.117.522.522,0,0,1,.085-.134s0,0,0,0a1.17,1.17,0,0,1,1.04-.231,7.185,7.185,0,0,1,.792.152c.667.157.784.018,1.024-.162a2,2,0,0,0,.5-.617l.007-.012c.055-.085.093-.147.093-.147a1.853,1.853,0,0,1-.092-.8,5.4,5.4,0,0,1,.345-1.026,2.716,2.716,0,0,1-.592-1.55,1.9,1.9,0,0,0,.23.624,4.2,4.2,0,0,0,.564.764,6.676,6.676,0,0,0,.635-1.053c.182-.46.879-2.865-2.286-4.387h0l-.123-.052c-.068-.033-.134-.063-.2-.091s-.124-.054-.182-.076l-.124-.049-.086-.033c-.095-.035-.173-.061-.23-.079l-.034-.012c-.117-.037-.564-.172-1.121-.288h0l-.015,0c-.1-.02-.2-.04-.306-.058A5.812,5.812,0,0,0,29.3,8.52Zm-.192,6.814a.3.3,0,0,1,.361-.178l.028.007.03.012a.3.3,0,0,1,.178.36,1.11,1.11,0,0,0-.037.468c.007.29.14.371.081.55h0l-.06.175a.281.281,0,0,1-.235.182A.358.358,0,0,1,29.3,16.9a.3.3,0,0,1-.206-.373.051.051,0,0,0-.033-.063.05.05,0,0,0-.063.03.3.3,0,0,1-.391.173.333.333,0,0,1-.132-.087.282.282,0,0,1-.076-.285h0l.059-.175c.059-.18.214-.164.4-.391A1.119,1.119,0,0,0,29.112,15.334Zm1.342-.906.006.008a1.65,1.65,0,0,0,.2.236h0c.02.02.041.039.064.059a.014.014,0,0,1,0,0,.911.911,0,0,0,.293.17,3.112,3.112,0,0,0,1.379-.064l.138-.019a2.825,2.825,0,0,1,.9.051h0v0h-.009l-.043.006c-.136.048-.206.369-.206.369a2.23,2.23,0,0,1-.1.283,1.963,1.963,0,0,1-.374.576,1.525,1.525,0,0,1-.395.268h0a1.162,1.162,0,0,1-.127.031,2.5,2.5,0,0,1-1.354-.293l-.007,0h0c-.333-.2-.4-.958-.4-1.154S30.453,14.434,30.454,14.428Zm-3.932-1.877a2.776,2.776,0,0,1,.749.5q.051.048.1.1a3.124,3.124,0,0,0,1.062.883.929.929,0,0,0,.337.04h.005c.03,0,.058,0,.086-.006h0A1.851,1.851,0,0,0,29.177,14s-.183.279-.3.435-.63.722-1.014.68l-.01,0a2.509,2.509,0,0,1-1.257-.583c-.032-.032-.081-.1-.082-.1l-.023.017a.2.2,0,0,0,.023-.018s-.077-.144-.082-.155a1.65,1.65,0,0,1-.018-1,2.164,2.164,0,0,1,.086-.266s.138-.3.058-.418l-.03-.031h0Z" fill="#0a0b09" fill-rule="evenodd"/>
    <path id="Path_112" data-name="Path 112" d="M30.341,25.789a5.8,5.8,0,0,1-4.551.417,5.881,5.881,0,0,1-3.349-3.053.372.372,0,0,1,.2-.477.7.7,0,0,0-.313.145.264.264,0,0,0-.026.059c-.2.6,1.009,3.132,3.292,3.9s4.755-.459,4.978-1.123a.435.435,0,0,0,.018-.087.725.725,0,0,0-.151-.264.361.361,0,0,1-.1.485" fill="#c2242b" fill-rule="evenodd"/>
    <path id="Path_113" data-name="Path 113" d="M28.611,24.16c0,.029,0,.058,0,.086l-.229-.114a3.137,3.137,0,0,1-.128.511c-.114-.066-.231-.13-.349-.191a4.015,4.015,0,0,0,.123-.486q-.189-.086-.386-.168-.052.233-.125.465c-.12-.056-.242-.109-.364-.159q.072-.225.13-.449-.193-.074-.391-.144-.068.217-.141.439c-.125-.045-.25-.087-.376-.126q.075-.22.152-.434-.2-.064-.4-.12c-.059.143-.114.288-.167.436-.128-.034-.257-.065-.386-.093.054-.152.114-.3.18-.443q-.207-.052-.41-.1a3.994,3.994,0,0,0-.193.459c-.131-.023-.262-.042-.394-.058a3.133,3.133,0,0,1,.2-.48l-.252-.046.055-.081a12.481,12.481,0,0,0-2.048-.2,7.164,7.164,0,0,1,2.228-.041l.022-.027.219.029q.1-.142.208-.275.184.024.36.054-.1.137-.191.283.2.036.4.081.082-.149.169-.292.168.036.331.078-.075.148-.146.3.186.05.375.108.059-.158.119-.311.158.049.314.105-.045.158-.093.32.186.066.364.138.035-.165.065-.327c.1.043.207.089.311.137-.011.11-.024.221-.041.332q.186.083.364.171.014-.168.017-.335.159.082.32.175.007.168,0,.336l.191.107c0,.018,0,.035,0,.053a6.882,6.882,0,0,1,1.7,1.338A12.382,12.382,0,0,0,28.611,24.16Zm-1.329-2.4a5.223,5.223,0,0,0-4.889.971.642.642,0,0,0-.056.081.054.054,0,0,1-.006.011.7.7,0,0,1,.313-.145.372.372,0,0,0-.2.477,5.881,5.881,0,0,0,3.349,3.053,5.8,5.8,0,0,0,4.551-.417.361.361,0,0,0,.1-.485.725.725,0,0,1,.151.264,1.518,1.518,0,0,0-.1-.643,5.444,5.444,0,0,0-3.211-3.168Z" fill="#dc4405" fill-rule="evenodd"/>
  </g>
</svg>
