<svg id="logo_kansascitycheifs" xmlns="http://www.w3.org/2000/svg" width="60" height="60" viewBox="0 0 60 60">
  <path id="Path_46" data-name="Path 46" d="M0,0H60V60H0Z" fill="none"/>
  <path id="Path_47" data-name="Path 47" d="M5.173,40.858a2.066,2.066,0,0,1-1.13-.851c-.424-.669-.274-1.158-.138-2.083a5.008,5.008,0,0,0-.147-2.467,15.319,15.319,0,0,1-.493-2.241,15.058,15.058,0,0,1-.156-1.542c-.009-.538.032-1.043.091-1.792a8.743,8.743,0,0,1,.493-2.089c.118-.355.438-1.193.633-1.591a2.846,2.846,0,0,0,.516-2.167c-.063-.451-.234-.693-.305-1.3A3.043,3.043,0,0,1,4.632,21.3a2.708,2.708,0,0,1,.544-1.01,1.68,1.68,0,0,1,1.1-.671,1.715,1.715,0,0,1,.791-.027c.894.078.762.868,2.1.04a2.6,2.6,0,0,1,2.843.134c.473.278.868,1.222.36-.335-.238-.925-.479-1.386-.8-2.842a3.119,3.119,0,0,1,1.05-3.542c.81-.711,2.452-.395,4.357-.037,1.672.314,2.067-.213,3.205-.164a9.289,9.289,0,0,1,1.71.153,5.523,5.523,0,0,1,1.538.6c1.14.622,1.075.008,2.668.217a6.291,6.291,0,0,1,1.226.141,5.917,5.917,0,0,1,1.495.677c1.477.861,1.479,1.054,3.939.947a3.78,3.78,0,0,1,1.706.618,6.49,6.49,0,0,0,2.723,1.077c1.335.085,2.479-.085,4.125,1.086,1.2,1.07,2.7,1.02,4.029,1.744a6.409,6.409,0,0,1,1.956,1.825c.107.174.546.458,1.643.64A4.934,4.934,0,0,1,51.5,24.73c.708.654.293.21,1.264.887.469.328.7.491,1.164.835.6.447.217.121.93.685.131.1.3.3.781.728a3.536,3.536,0,0,1,1.1,1.317,1.686,1.686,0,0,1-.254,1.773,6.862,6.862,0,0,1-1.236,1.691,5.1,5.1,0,0,1-1.245,1.031c-1.409.842-2.461.557-3.057,1.562A4.955,4.955,0,0,1,48.7,37.513c-1.34.628-2.239.606-3.089,1.274a14.359,14.359,0,0,1-2.528,1.574c-1.425.635-1.6.262-2.576.871a7.381,7.381,0,0,0-.954.774,4.1,4.1,0,0,1-1.624.783,13.182,13.182,0,0,0-1.51.249c-1.17.314-1.3.725-2.587.972a11.192,11.192,0,0,0-3.564.831c-.375.179-.784.358-1.333.656a9.115,9.115,0,0,1-2.911.635,3.136,3.136,0,0,0-2.036.255,7.4,7.4,0,0,1-2.636.859,6.789,6.789,0,0,1-1.334.037c-.841,0-1.717-.293-2.615-.265a11.256,11.256,0,0,0-1.474.06l-.543.089-.8.178-.291.077a3.5,3.5,0,0,1-1.6.011,3.358,3.358,0,0,1-1.813-.97,2.318,2.318,0,0,1-.487-1.867,32.088,32.088,0,0,1,1.078-3.822s.423-.963-.6-.423c-1.038.383-1.849-.287-2.479-.072a5.1,5.1,0,0,1-1.782.711,3.056,3.056,0,0,1-1.432-.13" fill="#fffffe"/>
  <path id="Path_48" data-name="Path 48" d="M16.736,45.957a6.1,6.1,0,0,1,1.988.068,9.335,9.335,0,0,0,2.286.164,5.927,5.927,0,0,0,1.142-.238,13.38,13.38,0,0,1,2.876-.99,13.522,13.522,0,0,1,2.018-.011A3.927,3.927,0,0,0,29,44.256c.5-.275.636-.3.974-.477,1.22-.654,2.654-.572,4.025-.908.964-.236,1.341-.69,2.418-.979a11.592,11.592,0,0,1,1.355-.171,3.05,3.05,0,0,0,1.317-.681c.595-.551.529-.573.991-.834.771-.436,1.643-.423,2.418-.783a6.573,6.573,0,0,0,2.033-1.2,8.279,8.279,0,0,1,3.224-1.468,3.874,3.874,0,0,0,2.171-1.852,3.359,3.359,0,0,1,2.517-1.725,3.657,3.657,0,0,0,1.79-1.01,6.089,6.089,0,0,0,1.02-1.247c.29-.428.86-1.13.254-1.667A10.853,10.853,0,0,0,54.4,28.146a9.643,9.643,0,0,0-.921-.711,3.21,3.21,0,0,0-.735-.509c-.446-.282-.572-.509-1.031-.769a4.207,4.207,0,0,1-1.567-1.393,2.959,2.959,0,0,0-2.364-1.4,2.88,2.88,0,0,1-1.629-1.124,3.934,3.934,0,0,0-1.6-1.331c-1.228-.666-2.644-.56-3.75-1.545-1.668-1.185-2.107-.966-3.859-1.02a5.483,5.483,0,0,1-2.648-.991,3.239,3.239,0,0,0-1.106-.59c-1.236-.381-2.082.273-3.809-.568-.5-.246-.961-.584-1.457-.87a3.1,3.1,0,0,0-1.028-.368,9.144,9.144,0,0,0-2.818.023c-.519.045-.828-.231-1.305-.489a4.907,4.907,0,0,0-1.487-.519,6.709,6.709,0,0,0-2.475.134c-1.728.347-3.313-.528-4.979-.372a1.627,1.627,0,0,0-1.029.778,2.294,2.294,0,0,0-.214,1.367,3.706,3.706,0,0,0,.275,1.23c.3,1.009.456,1.558.7,2.239.28.791.271,1.754-.395,2.061a1.252,1.252,0,0,1-1.156-.078c-.469-.357-.725-.861-1.254-.964-.705-.139-1.551.585-2.3.782s-.847-.211-1.369-.453a.956.956,0,0,0-.876.182c-.352.2-.436.6-.518,1.032a2.431,2.431,0,0,0-.008,1.043A8.481,8.481,0,0,1,6,24.206a3.225,3.225,0,0,1-.515,2.166A6.89,6.89,0,0,0,4.8,27.909a8.435,8.435,0,0,0-.473,1.926c-.086.52-.072,1.1-.118,1.591-.009.09.058,1.2.111,1.527.132.818.286,1.345.458,2.035a8.081,8.081,0,0,1,.329,2.387c-.025.789-.522,1.531-.05,2.089a1.582,1.582,0,0,0,1.682.384,6.984,6.984,0,0,1,1.587-.677c.913-.126,1.5.265,1.9.219.349-.041.964-.392,1.253-.417a1.8,1.8,0,0,1,.906.09c.278.209.45.439.4,1.161,0,.011-.169.768-.171.775-.288.948-.6,1.828-.747,2.48-.155.679-.9,2.151.612,2.754a3.353,3.353,0,0,0,2.144-.01,9.18,9.18,0,0,1,.993-.193c0-.03.592-.019.592-.048l.526-.022"/>
  <path id="Path_49" data-name="Path 49" d="M45.359,23.13a6.436,6.436,0,0,1,1.275,1.529,2.382,2.382,0,0,0,1.722.908c-.231-.042,1.076.41,1.273.52a3.416,3.416,0,0,1,1.1.981,6.226,6.226,0,0,0,1.61,1.318c.369.248.435.336,1.139.837a2.674,2.674,0,0,1,.788.815c.333.7-.132.945-.855,1.329-1.189.631-2.172.451-3.243,1.545a9.8,9.8,0,0,1-2.529,2.224,7.35,7.35,0,0,0-1.571.65,5.652,5.652,0,0,0-1.124.723,4.477,4.477,0,0,1-1.866,1.19c-.623.215-1.358.315-2.01.51a6.091,6.091,0,0,0-1.3.59,7.867,7.867,0,0,1-2.529,1.444,7.543,7.543,0,0,0-3.108,1.05,5.048,5.048,0,0,1-1.716.36,4.831,4.831,0,0,0-2.449.584,5.808,5.808,0,0,1-2.349,1.047,24.606,24.606,0,0,0-3.287.391,15.71,15.71,0,0,0-1.733.7,8.849,8.849,0,0,1-2.9.147,9.564,9.564,0,0,0-2.983.158,10.93,10.93,0,0,1-2.635.186.7.7,0,0,1-.551-.41,1.205,1.205,0,0,1-.159-.857,7.2,7.2,0,0,1,.225-1.316c.048-.188.284-1.411.325-1.6.263-1.177.344-2.363-.582-2.9a2.8,2.8,0,0,0-1.529-.182c-1.568.278-1.239.542-2.241.188a3,3,0,0,0-.842-.126c-.5.02-1.217.372-1.849.471-.444.07-.56-.425-.548-.779.018-.549.076-1.076.051-1.689A9.513,9.513,0,0,0,5.844,33c-.175-.878-.125-2.369-.167-2.327a6.724,6.724,0,0,1,.918-3.012A5.647,5.647,0,0,0,7.249,26.4a2.947,2.947,0,0,0,.1-1.867c0-.017-.165-.532-.106-.532a1.738,1.738,0,0,1,.138-.912,1.1,1.1,0,0,1,.571-.654,1.661,1.661,0,0,1,.521-.173c.583-.041.7.333,1.79-.124a1.827,1.827,0,0,1,1.4.182c.755.275.624.275,1.105.291a2.353,2.353,0,0,0,1.322-.359,1.613,1.613,0,0,0,.573-.442,3.3,3.3,0,0,0,.333-.942,3.125,3.125,0,0,0,.054-1.26c-.241-.922-.329-1.12-.494-1.7a12.44,12.44,0,0,1-.364-1.368c0-.008-.019-.53-.019-.53a.629.629,0,0,1,.615-.752c1.35-.011,2.616.374,4.043.365a6.455,6.455,0,0,1,3.063.256,10.559,10.559,0,0,0,1.523.784c1.437.405,2.579-.564,3.808.015a8.705,8.705,0,0,1,1.767.8,6.19,6.19,0,0,0,2.476.945c.827.122,2.139-.219,3.492.762a4.564,4.564,0,0,0,2.428.876c1.145.118,1.257-.043,2.159.611.664.482.481.375,1.151.874a4.674,4.674,0,0,0,.981.654,8.578,8.578,0,0,0,1.184.246,4.916,4.916,0,0,1,1.777.216c-.015-.016.878.57.722.469" fill="#fffffe"/>
  <path id="Path_50" data-name="Path 50" d="M15.784,31.272v1.818h6.831l.68-.637V30.271H22.286l0-.554,3.764-2.161.316.325a6.213,6.213,0,0,0-2,2.025,5.527,5.527,0,0,0-.57,4.3,4.79,4.79,0,0,0,1.251,2.112,6.277,6.277,0,0,0,2.062,1.423,14.765,14.765,0,0,0,4.1,1.115,23.291,23.291,0,0,0,4.321-.066,12.984,12.984,0,0,0,3.378-.918,10.378,10.378,0,0,0,1.877-1.014c1.36-.979,2.795-2.455,2.817-4.3H41.07c-.8,2.832-8.476,4.128-11.546,1.937-2.238-1.761-1.6-3.32-.658-4.044l.286.308-.478.5.035,1.823h6.466l.833-.79V30.324h-.5l-2.237-2.415c4.3-.922,6.427.966,7.682,3.03h1.684l.851-.834V25.317l-1.794,0-1.075.667a12.186,12.186,0,0,0-9.608-.513l-.483-.491,2.733-1.634,1.649-.009.807-.769,0-1.629h-6.6l-.7.712v1.11L22.242,26.3V23.57l1-1.01V20.917H16.758l-.886,1.036v1.3h1.062v7.018h-.325a12.531,12.531,0,0,0-.825,1"/>
  <path id="Path_51" data-name="Path 51" d="M16.934,21.321h5.922v1.063l-1.009.009V27l8.072-4.611h-.711V21.321l6.107-.009v1.063l-1.36.018-4.134,2.441,5.564,6.016.193,0v1.225H29.437V30.842l.855.009L26.48,26.785,21.891,29.42v1.431h.965v1.221H16.934V30.851h1.009V22.384H16.934V21.321ZM43.141,32.959a4.838,4.838,0,0,1-1.514,2.569,7.219,7.219,0,0,1-2.079,1.493,11.957,11.957,0,0,1-5.242,1.208,16.044,16.044,0,0,1-6.558-1.076,6.179,6.179,0,0,1-3.071-2.591,4.818,4.818,0,0,1-.105-3.579,5.09,5.09,0,0,1,2.193-2.74l1.772,1.915a2.507,2.507,0,0,0-.149,3.834c1.685,2.108,5.523,2.7,9.515,1.515a5.594,5.594,0,0,0,3.615-2.547h1.623ZM31.323,25.8a12.4,12.4,0,0,1,9.388.571l1.009-.659h1.412l-.017,4.251-1.57.018c-1.6-2.411-5.242-3.259-8.642-2.446L31.323,25.8Z" fill="#e31837"/>
</svg>
