<svg id="logo_philadelphiaeagles" xmlns="http://www.w3.org/2000/svg" width="60" height="60" viewBox="0 0 60 60">
  <path id="Path_99" data-name="Path 99" d="M0,0H60V60H0Z" fill="none" fill-rule="evenodd"/>
  <g id="Group_41" data-name="Group 41" transform="translate(1.2 10.08)">
    <path id="Path_100" data-name="Path 100" d="M33.5,2.99,30.7,5.928C35.292,4.02,45.306.744,45.306.744L42.1,3.882C50.855,1.29,57.509.061,57.509.061A70.115,70.115,0,0,1,52.7,9.043c.557-.06,4.195-.484,4.195-.484A61.158,61.158,0,0,1,49.837,17.9l2.117.527A55.8,55.8,0,0,1,44.3,27.056c-6.26,5.579-9.482,4.722-9.482,4.722-4.647,3.366-8.372,1.66-8.372,1.66s1.609-4.061-.053-4.493A5.213,5.213,0,0,0,22.331,30.2,19.064,19.064,0,0,1,19.5,35.4,16.087,16.087,0,0,1,14.3,39.655a6.976,6.976,0,0,1-2.17-4.971,8.121,8.121,0,0,1-3.891,2.081,7.426,7.426,0,0,1-6.349-1.9C.3,33.54,0,29.1,0,29.1a20.577,20.577,0,0,1,4.359-5.336,3.821,3.821,0,0,1-1.147-1.654c7.631-3.331,7.636-6.51,13.7-10.375A122.035,122.035,0,0,1,33.5,2.99" fill="#fff" fill-rule="evenodd"/>
    <path id="Path_101" data-name="Path 101" d="M29.786,5.687,27.389,8.2c4.735-2.1,14.733-5.5,14.733-5.5l-2.9,2.839A140.474,140.474,0,0,1,55.974,1.29a60.9,60.9,0,0,1-4.952,8.758c1.369-.131,4.225-.463,4.225-.463a48.015,48.015,0,0,1-7.076,8.837c.469.069,2.384.506,2.384.506a44.458,44.458,0,0,1-6.969,7.65c-5.647,4.944-8.152,4.359-8.152,4.359a1.875,1.875,0,0,0,.049-.493,1.947,1.947,0,0,0-.041-.328c-4.347,4.091-7.969,2.711-7.969,2.711s1.608-3.893-.858-4.678c-1.91-.608-4.837.955-5.07,1.793a18.374,18.374,0,0,1-2.67,4.92,15.269,15.269,0,0,1-4.4,3.743s-2.1-1.616-1.372-6.346a2.179,2.179,0,0,0-.158-1.606c-.345-.528-3.032.048-3.688,1.547-.463,1.059,2.208,1.954,2.208,1.954a6.7,6.7,0,0,1-3.386,1.8,6.472,6.472,0,0,1-5.655-1.718C1.122,33.105.852,29.288.852,29.288a20.8,20.8,0,0,1,4.745-5.5,3.816,3.816,0,0,1-1.208-1.361c6.318-2.721,7.184-6.569,14.317-10.869a99.084,99.084,0,0,1,11.08-5.875" fill="#004c54" fill-rule="evenodd"/>
    <path id="Path_102" data-name="Path 102" d="M53.669,2.974A34.461,34.461,0,0,1,49.49,10.9c1.716-.121,3.567-.222,3.567-.222a33.453,33.453,0,0,1-6.482,8.288,12.12,12.12,0,0,1,1.869.48c-2.17,3.52-8.657,10.432-12.283,10.717a2.687,2.687,0,0,0-.56-1.48c-1.36,2.487-5.514,4.013-7.239,3.614,2.094-7.672-6.791-4.749-7.472-2.643a15.348,15.348,0,0,1-6.259,8.041s-1.435-1.635-.82-5.317c.454-2.715-1.263-2.63-1.263-2.63-.685-.032-3.283.282-4.1,2.1C7.784,33.3,10.1,34.327,10.1,34.327s-3.341,2.668-7.207-.639c-.948-.811-1.3-4.235-1.3-4.235a20.244,20.244,0,0,1,5.324-5.77A2.832,2.832,0,0,1,5.5,22.711c5.19-2.38,7.226-6.336,11.644-9.275a59.427,59.427,0,0,1,8.6-4.83l-1.407,1.77s1.178-.5,1.691-.755A114.513,114.513,0,0,1,38.521,4.866l-2.45,2.373A88.912,88.912,0,0,1,45.25,4.754C47.975,4.172,53.669,2.974,53.669,2.974Zm-37.3,17.9c-.081.1-.171.215-.269.336a.774.774,0,0,1,.681.34,1,1,0,0,1-.525,1.281,1,1,0,0,1-1.381-.145A.621.621,0,0,1,14.8,22.5a3.434,3.434,0,0,1-.31.2.951.951,0,0,0,.1.222,1.383,1.383,0,0,0,1.907.231,1.373,1.373,0,0,0,.7-1.784A1.066,1.066,0,0,0,16.371,20.878Z" fill-rule="evenodd"/>
    <path id="Path_103" data-name="Path 103" d="M35.507,6.717s-1.182.846-2,1.389c-1.109.736-2.09,1.447-2.09,1.447L31.54,9.5a44.988,44.988,0,0,1,17-2.005,39.335,39.335,0,0,0-11.26,2.428,37.37,37.37,0,0,1,4.5-.512,25.514,25.514,0,0,1,2.7.144c-9.484,1.48-14.586,4.221-15.829,4.959-.517.22-.789.357-.789.357s1.547-.485,3.507-.97a32.736,32.736,0,0,1,13.369,1.2s-3.377-.179-4.853-.146a30.408,30.408,0,0,0-8.949,1.87,16.77,16.77,0,0,1,6.014-.191A25.438,25.438,0,0,0,31.2,18.13a29.738,29.738,0,0,0-5.972,3.348c-.647.384-.994.637-.994.637h0a21.548,21.548,0,0,1,2.2-.974,17.06,17.06,0,0,1,10.784-.011,18.786,18.786,0,0,0-12.233,1.84c3.914-1.279,6.4-.073,6.4-.073a10.865,10.865,0,0,0-9.5,3.477,8.2,8.2,0,0,1,1.7-2.279,7.481,7.481,0,0,0-.724.411c-.977.563-4.98,2.6-8.455.436-.216-.134-.4-.259-.554-.376,1.156.605,3.063.657,3.854-.122-2.771.715-3.264-.55-3.323-1.338a1.91,1.91,0,0,1-.681-.038s.453-.193.679-.309c.039-.02.076-.043.114-.065a.951.951,0,0,0,.1.222,1.383,1.383,0,0,0,1.907.231,1.373,1.373,0,0,0,.7-1.784,1.066,1.066,0,0,0-.822-.485,7.964,7.964,0,0,1,1.47-1.462,4.351,4.351,0,0,0-.74,1.152,1,1,0,0,1,.768.461,1.16,1.16,0,0,1-.012,1.137h0a2.659,2.659,0,0,1-.993,1.071,2.369,2.369,0,0,1-1.821.378.844.844,0,0,0,.238.263,2.151,2.151,0,0,0,2.011-.07,3.4,3.4,0,0,0,.9-.576,3.834,3.834,0,0,0,1.151-2,6.4,6.4,0,0,1,3.617-3.477c-1.512.184-3.362,1.548-3.308.939.025-.283.836-2.982,5.8-5.047.091-.033.18-.066.274-.1a18.9,18.9,0,0,0-6.047,2.54,12.18,12.18,0,0,0-3.364,2.927,4.828,4.828,0,0,1,.539-1.608c-1.353.871-1.016,2.084-2.035,3.266a8.062,8.062,0,0,1-1.415,1.255,6.553,6.553,0,0,1-5.724.709c3.86-2.086,3.745-2.556,6.288-5.254a27.015,27.015,0,0,1,9.4-6.933c-.314.4-1.611,1.542-1.891,1.866,0,0,.963-.515,2.786-1.38A63.772,63.772,0,0,1,35.507,6.717ZM15.382,22.012a.791.791,0,0,0,.311.712.875.875,0,0,1-.516-.124.521.521,0,0,1-.185-.244C15.13,22.247,15.259,22.131,15.382,22.012Z" fill="#fff" fill-rule="evenodd"/>
    <path id="Path_104" data-name="Path 104" d="M11.9,24.044a8.012,8.012,0,0,0,9.118,2.234,6.916,6.916,0,0,0-.539,1.55,13.791,13.791,0,0,1-5.654,8.627,6.639,6.639,0,0,1-.214-4.2,3.73,3.73,0,0,0-.406-2.592c2.868.136.056,3.709,1.122,5.265,1.927-1.122,3.09-5.07,3.377-6.48.02-.053-.272-.26-.508-.347a14.19,14.19,0,0,0-9.091.888c-5.257,3.182-.339,5.364-.339,5.364a4.463,4.463,0,0,1-5.091-1.845A9.173,9.173,0,0,1,3,29.214c1.927-3.263,4.957-4.56,5.8-5.14A6.275,6.275,0,0,0,11.9,24.044ZM23,27s2.433-2.374,7.84-1.419a6.619,6.619,0,0,1,3.22,1.46A6.511,6.511,0,0,1,31.3,29.432s.116-2.558-3.945-3.211A6.02,6.02,0,0,0,23,26.993Zm3.444-5.856c3.549-1.371,10.794-3.351,17.359-.061a14.986,14.986,0,0,1-2.955,3.634,10.027,10.027,0,0,1-2.758,2.043l-.063.033c-.536-2.028-5-3.958-11.414-2.366A9.823,9.823,0,0,0,21.7,26.9l-.072.067c.079-.208.167-.406.26-.6a10.865,10.865,0,0,1,9.5-3.477s-2.482-1.206-6.4.073a18.786,18.786,0,0,1,12.233-1.84A17.06,17.06,0,0,0,26.439,21.14Zm-15.863,3.8c-.7.362-1.22.643-1.22.643-.412.618.455.495.857.375.325-.1,1.791-.523,1.791-.523A2.285,2.285,0,0,1,10.576,24.942Zm14.876-11.3c-4.967,2.065-5.778,4.764-5.8,5.047-.054.609,1.8-.755,3.308-.939a6.4,6.4,0,0,0-3.617,3.477,3.834,3.834,0,0,1-1.151,2,1.891,1.891,0,0,0,.688-1.281v0a2.036,2.036,0,0,1-.677.254,1.08,1.08,0,0,1-.342-.033,1.306,1.306,0,0,0,.159-.592A7.2,7.2,0,0,1,19.7,19.453s-.891.53-1.024.017c-.354-1.366,2.039-4.065,6.592-5.763Zm9.623-.51c5.685-.874,13.536-.032,13.536-.032a9.49,9.49,0,0,1-2.07,3.026,21.972,21.972,0,0,1-2.214,2.231,27.036,27.036,0,0,0-19.1,3.121A29.738,29.738,0,0,1,31.2,18.13a25.438,25.438,0,0,1,5.738-1.495,16.77,16.77,0,0,0-6.014.191,30.408,30.408,0,0,1,8.949-1.87c1.476-.033,4.853.146,4.853.146a32.736,32.736,0,0,0-13.369-1.2C32.53,13.611,33.849,13.32,35.075,13.131ZM49.649,5.721a14.578,14.578,0,0,1-3.423,5.372,91.868,91.868,0,0,0-9.691,1.083,41.029,41.029,0,0,0-7.9,2.338c1.244-.738,6.345-3.479,15.829-4.959a25.514,25.514,0,0,0-2.7-.144,37.37,37.37,0,0,0-4.5.512,39.335,39.335,0,0,1,11.26-2.428,44.988,44.988,0,0,0-17,2.005,45.435,45.435,0,0,1,8.97-2.532C45.368,6.066,49.649,5.721,49.649,5.721Z" fill="#a5acaf" fill-rule="evenodd"/>
  </g>
</svg>
