<svg id="logo_sanfrancisco49ers" xmlns="http://www.w3.org/2000/svg" width="60" height="60" viewBox="0 0 60 60">
  <path id="Path_39" data-name="Path 39" d="M0,0H60V60H0Z" fill="none"/>
  <path id="Path_40" data-name="Path 40" d="M30.123,47.079c9.809,0,19.473-3.325,24.62-8.473a12.373,12.373,0,0,0,4-8.731A12.239,12.239,0,0,0,54.8,21.231C49.689,16.124,40,12.824,30.123,12.824a42.9,42.9,0,0,0-19.371,4.468C4.592,20.535,1.2,25,1.2,29.875A12.232,12.232,0,0,0,5.158,38.5,28.137,28.137,0,0,0,16.033,44.8a44.491,44.491,0,0,0,14.09,2.284" fill="#fffffe"/>
  <path id="Path_41" data-name="Path 41" d="M11.178,18.1C5.335,21.18,2.117,25.361,2.117,29.875a11.344,11.344,0,0,0,3.69,7.978,27.231,27.231,0,0,0,10.52,6.074,43.58,43.58,0,0,0,13.8,2.236c9.577,0,18.987-3.221,23.972-8.205a11.48,11.48,0,0,0,3.727-8.083,11.345,11.345,0,0,0-3.674-8c-4.944-4.944-14.375-8.138-24.025-8.138A41.959,41.959,0,0,0,11.179,18.1"/>
  <path id="Path_42" data-name="Path 42" d="M30.106,44.538c8.455,0,16.467-2.759,20.909-7.2a10.521,10.521,0,0,0,3.424-7.4,10.519,10.519,0,0,0-3.424-7.4c-4.442-4.441-12.454-7.2-20.909-7.2a34.541,34.541,0,0,0-16.955,4.2c-4.758,2.784-7.378,6.474-7.378,10.39a10.52,10.52,0,0,0,3.426,7.4c4.441,4.44,12.453,7.2,20.908,7.2" fill="#b3995d"/>
  <path id="Path_43" data-name="Path 43" d="M30.15,44.02c12.393,0,22.44-6.42,22.44-14.155S42.543,15.858,30.15,15.858,7.71,22.129,7.71,29.865,17.756,44.02,30.15,44.02" fill="#a00"/>
  <path id="Path_44" data-name="Path 44" d="M47.7,28.105H47.64v-.511h-8.9a4.8,4.8,0,0,0-1.589-2.656,5.972,5.972,0,0,0-3.326-1.9l-.555-.115a24.915,24.915,0,0,0-6.384-.463s-.785-.027-1.548-.128a3.342,3.342,0,0,1-.507-.17c.056-.34.677-.808,1.379-.9a13.383,13.383,0,0,1,9.04,2.119l.111.072h2.99V18.884h-.511v-.511h-4.1l-.691.528c-1.181-.3-6.966-1.562-11.962.625-2.1.867-3.4,2.5-3.309,4.167a2.93,2.93,0,0,0,1.142,2.136,4.576,4.576,0,0,0,2.358,1.435,17.4,17.4,0,0,0,3.946.671v2.085h.511v.511h1.56c.646,0,.812.358.852.491a11.884,11.884,0,0,1-7.247-2.758l-.084-.09h-.016q-.184-.177-.362-.367l-.134-.144H18.056v6.511h.511v.51H20.4c.268.019,1.118-.075,1.7-1.79a21.219,21.219,0,0,0,6.185,1.116v4.051c-.1,1.36-3.1,1.786-4.141,1.827l-.432.017v2.014h.511v.51H37.382V40.5l-.335-.089-.176-.048v-.441l-.411-.035a7.058,7.058,0,0,1-1.75-.351c-.828-.464-.969-.84-.987-.9v-2.16h3.856a2.242,2.242,0,0,1,1.052.472,5.1,5.1,0,0,1,.812,1.478l.1.316h.342c.046.116.07.189.071.194l.1.317h2.072V31.425h-.511v-.511H39.551l-.074.358c-.54,2.6-3.552,2.565-6.229,2.175a14.746,14.746,0,0,0,1.578-.525,7.148,7.148,0,0,0,3.18-2.251h5.78a1.96,1.96,0,0,1,1.033.3,4.148,4.148,0,0,1,.544,2.212l-.025.474h.537V33.7l-.026.474h2.3V28.105H47.7"/>
  <path id="Path_45" data-name="Path 45" d="M38.484,29.709a3.391,3.391,0,0,0,.44-1.665H47.19V33.21H45.812s.2-3.413-2.538-3.5h-4.79Zm-9.748,4.412a14.562,14.562,0,0,0,3.437-.355c.474-.1,6.877,1.774,7.744-2.4h1.247V38.3H39.873s-.766-2.495-2.756-2.779H32.762v2.648s.017,1.857,3.659,2.172v1.132H24.163V40.339s4.431-.172,4.573-2.251V34.121ZM32.56,27.3a10.828,10.828,0,0,0-2.437-.257c-3.531-.135-5.753.286-9.238-.719-3.956-1.14-3.246-4.886.377-6.383,5.39-2.359,11.881-.547,11.881-.547l.745-.569h3.5V22.5H34.981a13.7,13.7,0,0,0-9.343-2.188c-1.488.193-2.932,1.833-.394,2.468.81.109,1.641.136,1.641.136a24.065,24.065,0,0,1,6.849.568c4.172.827,6.48,6.1.416,8.511-6.261,2.486-12.844-.193-12.844-.193-.547,2.057-1.4,1.926-1.4,1.926H18.5V28.115h1.6c3.743,4.046,10.153,3.354,10.153,3.354a5.329,5.329,0,0,0,3.151-1.225c.974-1.188.819-2.459-.845-2.946Zm-5.23,2.276H25.667v-1.49c1.289,0,3.918.011,5.778,0s2.122,1.082,1.333,1.814a5,5,0,0,1-4.145.845,1.334,1.334,0,0,0-1.3-1.169Z" fill="#fffffe"/>
</svg>
