<svg id="logo_detroitlions" xmlns="http://www.w3.org/2000/svg" width="60" height="60" viewBox="0 0 60 60">
  <path id="Path_52" data-name="Path 52" d="M0,0H60V60H0Z" fill="none"/>
  <path id="Path_53" data-name="Path 53" d="M52.2,21.993a2.6,2.6,0,0,1,1.472-.6,2.148,2.148,0,0,1,1.558.566,3.488,3.488,0,0,1,1.251.1A3.55,3.55,0,0,1,58.4,23.394a2.014,2.014,0,0,1,.027,2.027,1.539,1.539,0,0,1-.181,1.037,2.451,2.451,0,0,1-.807.875,2.538,2.538,0,0,1-1.235,1.246,3.158,3.158,0,0,1-2.068-.051,7.462,7.462,0,0,1-1.166.13,4.361,4.361,0,0,1-1.427-.32s-.6.879-.766,1.089a5.628,5.628,0,0,0,1.713.992,8.579,8.579,0,0,1,2,.7,2.017,2.017,0,0,1,.562.582,3.634,3.634,0,0,1,1.224.044,3.313,3.313,0,0,1,1.761,1.24A2.687,2.687,0,0,1,58.6,35.18a1.75,1.75,0,0,1-.629,1.046,3.133,3.133,0,0,1-.648,1.138,1.743,1.743,0,0,1-1.051.465,1.91,1.91,0,0,1-1.22.6,2.1,2.1,0,0,1-1.511-.346,4.411,4.411,0,0,1-1.643-.215A3.483,3.483,0,0,1,50.3,36.6a4.9,4.9,0,0,0-1.752-.348,14.017,14.017,0,0,1-4.8-1.22,8.052,8.052,0,0,1-2.678.425,3.306,3.306,0,0,0-.882-1.366s-1.731.961-2.278,1.215a7.508,7.508,0,0,1-2.45.753,8.963,8.963,0,0,1-.654,2.224,3.572,3.572,0,0,1-1.915,1.587A3.456,3.456,0,0,1,34.412,41a2.3,2.3,0,0,1,.344,2.324,1.94,1.94,0,0,1-.762.877,1.855,1.855,0,0,1-1.011,1.058,3.516,3.516,0,0,1-1.821.17,3.066,3.066,0,0,1-1.33.29,3.982,3.982,0,0,1-1.735-.662s-2.524.231-3.275.168a2.241,2.241,0,0,1-2.064-1.482,6.128,6.128,0,0,1-1.149.718,21.757,21.757,0,0,0-2.933,1.641l.031.5a2.346,2.346,0,0,1,1.459,1.921,2.109,2.109,0,0,1-.895,2.075,2.236,2.236,0,0,1-.918.952,2.21,2.21,0,0,1-1.316.171,2.594,2.594,0,0,1-2.716-.44,2.786,2.786,0,0,1-.829-2.631c.012-.293.1-2.867.085-2.987a2.514,2.514,0,0,1-.456-1.662,2.813,2.813,0,0,1,1.122-1.7,2.779,2.779,0,0,0,.893-1.391,20.351,20.351,0,0,0,.268-2.568c.065-.511.091-1.367.091-1.367A8.542,8.542,0,0,1,11.986,35a7.129,7.129,0,0,1-1.84-3.639c-.3-1.328-.52-2.67-1.74-3.423A2.874,2.874,0,0,1,6.689,27.8a5.316,5.316,0,0,1-2.067-1.839c-.588-.728-2.679-1.06-3.422-1.1A10.189,10.189,0,0,1,4.89,22.384c2.118-.74,3.126-.447,3.829-.051A3.227,3.227,0,0,1,10.233,24.3a7.226,7.226,0,0,1,2.327,1.71,7.612,7.612,0,0,1,1.7,3.307,3.656,3.656,0,0,0,3.126,3.22,23.062,23.062,0,0,1,1.99-1.8,5.8,5.8,0,0,1,1.437-.617c.2-.058,1.125-.36,1.125-.36s1.458-1.189,1.7-1.427c0,0,.543-.966.888-1.528a7.7,7.7,0,0,1,.884-1.119,6.232,6.232,0,0,1-.669-2.756,2.909,2.909,0,0,0,.66.2,3.8,3.8,0,0,1,.669-2.05,9.99,9.99,0,0,1,1.384-1.6,4.807,4.807,0,0,1,.732-2.523,4.861,4.861,0,0,1-.649-1.571,11.187,11.187,0,0,0,1.748-.307,2.563,2.563,0,0,0,1.506-.831,7.917,7.917,0,0,1,2.463-2.133,7.082,7.082,0,0,1,3.376-.675,4.073,4.073,0,0,0-1.2-.691,6.932,6.932,0,0,1,3.177-1.014,5.938,5.938,0,0,1,.243-1.63,31.833,31.833,0,0,0,4.2,2.466c1.4.55,2.424.728,3.152,1.086a2.758,2.758,0,0,1,1.359,1.421,7.454,7.454,0,0,1,1.384.723,3.412,3.412,0,0,1,.947,1.438A17.469,17.469,0,0,1,52.2,16.408a16.685,16.685,0,0,1,2.614,2.223,4.513,4.513,0,0,0-1.679,1.515,5.4,5.4,0,0,1-.939,1.847" fill="#b0b7bc"/>
  <path id="Path_54" data-name="Path 54" d="M50.556,22.51a3.982,3.982,0,0,1,.992.119,4.336,4.336,0,0,1,.758.282,5.728,5.728,0,0,0,.516-.368,1.632,1.632,0,0,1,1.154-.346,1.387,1.387,0,0,1,.879.548,7.613,7.613,0,0,0,.763,0,2.515,2.515,0,0,1,1.586.539c.542.432,1.036,1.07.378,1.922a1.545,1.545,0,0,1-.054.929,1.54,1.54,0,0,1-.7.6A1.975,1.975,0,0,1,55.8,27.9a2.552,2.552,0,0,1-1.631-.207,5.963,5.963,0,0,1-1.467.164,2.933,2.933,0,0,1-1.288-.564,1.037,1.037,0,0,0-.287.292c-.142.206-1.2,1.692-1.448,1.953a7.93,7.93,0,0,0,2.062,1.428,9.957,9.957,0,0,0,1.815.561,1.751,1.751,0,0,1,1.079,1.06,4.364,4.364,0,0,1,1.09-.13,2.233,2.233,0,0,1,1.609.9,1.623,1.623,0,0,1,.464,1.8,1.583,1.583,0,0,1-.568.6,1.633,1.633,0,0,1-.426,1,1.3,1.3,0,0,1-.916.285,1.285,1.285,0,0,1-.745.558,1.664,1.664,0,0,1-1.4-.336A4.148,4.148,0,0,1,51.914,37a2.553,2.553,0,0,1-1.062-1.055,7.71,7.71,0,0,0-2.5-.512A10.987,10.987,0,0,1,43.8,34.148a6.782,6.782,0,0,1-2.215.574,3.216,3.216,0,0,0-1.374-1.568s-2.291,1.27-3.111,1.648a9.47,9.47,0,0,1-2.475.538,2.276,2.276,0,0,1-.017.909,6.666,6.666,0,0,1-.746,2.031,4.492,4.492,0,0,1-1.576.993,15.192,15.192,0,0,0-1.567.572,7.444,7.444,0,0,0-1.364.993,6.422,6.422,0,0,0,.995.183,4.476,4.476,0,0,0,.944-.355,2.022,2.022,0,0,1,1.835.226,2.193,2.193,0,0,1,1.013,1.664,1.313,1.313,0,0,1-.817,1.1,1.314,1.314,0,0,1-.735.917,3.746,3.746,0,0,1-1.584.02,2.364,2.364,0,0,1-1.03.336,3.141,3.141,0,0,1-1.435-.517.824.824,0,0,0-.444-.129c-.206,0-2.427.184-3.119.184a1.567,1.567,0,0,1-1.457-.875c-.292-.541.117-1.4.378-1.749s.67-.823.721-.921a.265.265,0,0,0-.074-.356c-.141-.1-.591-.32-.591-.32s-.683,1.368-.941,1.831a3.515,3.515,0,0,1-1.241,1.383c-.649.4-2.02,1.006-2.742,1.448a7.439,7.439,0,0,0-1.153.85s.007,1.3.047,1.462a2.6,2.6,0,0,1,.912.355,1.412,1.412,0,0,1,.506,1.1c-.009.507-.077,1.1-.709,1.341a1.373,1.373,0,0,1-.672.851,1.622,1.622,0,0,1-1.005.022,2.365,2.365,0,0,1-1.391.194,1.765,1.765,0,0,1-1.317-1.631c-.01-.746.118-3.445.118-3.62a1.105,1.105,0,0,0-.128-.592,2.259,2.259,0,0,1-.356-1.21,2.42,2.42,0,0,1,.819-1.124,2.765,2.765,0,0,0,1-1.209,7.672,7.672,0,0,0,.421-2.074,29.131,29.131,0,0,1,.239-3.271,8.623,8.623,0,0,1-3.888-1.977,7.715,7.715,0,0,1-1.759-3.964,4.365,4.365,0,0,0-2.194-3.349,2.179,2.179,0,0,1-1.723-.054c-.972-.422-1.5-1.523-2.019-1.914a5.472,5.472,0,0,0-2.211-.6,13.372,13.372,0,0,1,2.836-1.512,3.613,3.613,0,0,1,3.195.174,2.791,2.791,0,0,1,.906,1.706,7.452,7.452,0,0,1,2.56,1.825,7.093,7.093,0,0,1,1.4,2.959,5.406,5.406,0,0,0,1.667,2.809,5.544,5.544,0,0,0,2.544.945,24.569,24.569,0,0,1,2.116-2,4.812,4.812,0,0,1,1.4-.573c.26-.075,1.158-.372,1.158-.372s1.588-1.369,1.894-1.6c0,0,.921-1.6,1.18-1.976s.955-1.266.955-1.266a2.78,2.78,0,0,1-.629-1.669,2.7,2.7,0,0,0,.613.051,1.924,1.924,0,0,1-.16-1.275,6.373,6.373,0,0,1,2.039-2.885,5.056,5.056,0,0,1,.183-1.531,4.733,4.733,0,0,1,.688-1.343,3.06,3.06,0,0,1-.57-1.088,8.72,8.72,0,0,0,1.578-.3,3.855,3.855,0,0,0,1.165-.677,7.143,7.143,0,0,1,2.75-2.252,7.734,7.734,0,0,1,3.055-.373,8.342,8.342,0,0,1,1.079-.607,4.106,4.106,0,0,0-1.1-.884,7.119,7.119,0,0,1,2.239-.27,6.27,6.27,0,0,1,.142-1.181,23.867,23.867,0,0,0,2.724,1.727c.852.378,2.481.918,3.033,1.092A2.172,2.172,0,0,1,46.9,13.669s.908.382,1.265.577a2.226,2.226,0,0,1,.8.854,3.849,3.849,0,0,0,.242.583.788.788,0,0,0,.4.311,14.528,14.528,0,0,1,2.344,1.243c.689.52,1.63,1.416,1.63,1.416a8.726,8.726,0,0,0-1.167,1.092,6.867,6.867,0,0,1-.733,1.608,2.7,2.7,0,0,1-1.133.931v.225" fill="#fffffe"/>
  <path id="Path_55" data-name="Path 55" d="M48.547,29.57a24.814,24.814,0,0,1-4.672,3.672,8,8,0,0,1-1.835.6,3.485,3.485,0,0,0-1.892-1.578,12.571,12.571,0,0,0-6.535-.219s3.675-.269,5.517.793a28.676,28.676,0,0,1-2.594,1.318,12.166,12.166,0,0,1-2.9.46,5.9,5.9,0,0,1,.229,1.2,4.458,4.458,0,0,1-.8,2.124,10.333,10.333,0,0,1-2.409,1.033,4.759,4.759,0,0,0-2.581,2.408s1.721.375,2.179.43a2.306,2.306,0,0,0,1.205-.343,1.162,1.162,0,0,1,1.146.028,1.6,1.6,0,0,1,.717.919c.086.286-.228.544-.746.631,0,0,.058.6-.257.745a2.8,2.8,0,0,1-1.522-.087,1.108,1.108,0,0,1-.887.4c-.6,0-1-.632-1.634-.661s-2.609.229-3.326.173-.774-.488-.63-.891,1.032-1.29,1.175-1.693c.124-.35.234-.961-1.2-1.531a11.2,11.2,0,0,1,2.715-2.328,23.375,23.375,0,0,1,5.009-2.437,12.207,12.207,0,0,0-3.374.978A12.742,12.742,0,0,0,25.122,37.9s.166-.647,2.1-2.367l-.02.014a8.133,8.133,0,0,0-3.769,3.969,22.5,22.5,0,0,1-1.607,2.907,15.8,15.8,0,0,1-2.521,1.4c-.891.517-2.037,1.178-2.181,1.607a9.894,9.894,0,0,0,.086,2.5s1,.085,1.2.343a.957.957,0,0,1,.056.918c-.113.145-.544.145-.544.145s.029.571-.258.744S16.752,50,16.752,50a.864.864,0,0,1-.6.314.906.906,0,0,1-.946-.429,2.018,2.018,0,0,1-.114-1.091c0-.344.142-2.754.085-3.328s-.544-.974-.458-1.348,1.146-.976,1.49-1.607a6.5,6.5,0,0,0,.745-2.925,20.152,20.152,0,0,1,.316-3.558c.029-.094.058-.183.083-.269a9.765,9.765,0,0,1-3.858-1.541A4.915,4.915,0,0,1,11.751,31.2a12.117,12.117,0,0,0-1.182-3.374A6,6,0,0,0,8.536,26.15a1.442,1.442,0,0,1-1.582.052,3.441,3.441,0,0,1-1.46-1.363,1.829,1.829,0,0,0-1.092-.56c2.1-.821,3.147.311,3.147.311s-.053-.569-.864-.778a5.28,5.28,0,0,0-.879-.169,4.037,4.037,0,0,1,.411-.137,2.43,2.43,0,0,1,1.825.254,2.944,2.944,0,0,1,.8,1.609,10.909,10.909,0,0,1,2.568,1.749,6.249,6.249,0,0,1,1.207,2.406,6.1,6.1,0,0,0,2.009,3.554,6.377,6.377,0,0,0,3.412,1.168c.028-.038.055-.075.085-.114a12.661,12.661,0,0,1,2.378-2.208c.43-.2,2.152-.634,2.353-.833s1.893-1.55,2.035-1.751.918-1.578,1.376-2.267a23.8,23.8,0,0,1,1.607-1.949s-.974-.03-1.23-.461c0,0,1.062-.468,1.157-1.07.055-.356-.19-.612-.91-.316a3.911,3.911,0,0,1,.7-1.54A11.27,11.27,0,0,1,29.8,19.587c.575-.415.774-.946.63-1.233s-.775-.317-1.206.172a3.952,3.952,0,0,1,1.148-1.721,1.151,1.151,0,0,1-.745-.547,3.179,3.179,0,0,0,1.4-.287,11.309,11.309,0,0,1,2.637-1.289,1.565,1.565,0,0,0-1.175.029,4.991,4.991,0,0,1,2.781-1.579c1.684-.258,3.182.2,3.87-.115a1.356,1.356,0,0,0-1.061-.4,4.033,4.033,0,0,1,1.492-.547,3.238,3.238,0,0,0-1.177-.832,7.926,7.926,0,0,1,2.037.316,1.343,1.343,0,0,1-.315-.919,9,9,0,0,0,2.837,1.607c1.692.574,2.725.775,3.011,1.233s.115.718.115.718,1.232.518,1.663.745a1.587,1.587,0,0,1,.658.921,1.62,1.62,0,0,0,.573.745,17.337,17.337,0,0,1,2.178,1.061A10.863,10.863,0,0,1,52.5,18.7s-.659.372-.8.688-.432,1.835-1.665,2.237a1.5,1.5,0,0,0,.089-1.262,4.96,4.96,0,0,0-2.5.546s-.186,1.234.474,1.579,1.418-.692,1.506-.921c0,0-.022.581,0,.973l.176.028a5.582,5.582,0,0,1-.033,1.007,1.718,1.718,0,0,1,1.291-.23c.8.142,1,.4,1.262.4a2.03,2.03,0,0,0,.943-.516.735.735,0,0,1,.719-.2c.258.086.4.488.4.488a8.263,8.263,0,0,0,1.291.028,2.049,2.049,0,0,1,1.117.43c.172.144.374.374.314.547s-.458.429-.458.429a1.819,1.819,0,0,1,.2.745c-.028.288-.63.4-.63.4s-.2.775-.573.975-1.434-.228-1.434-.228a4,4,0,0,1-1.346.2,1.562,1.562,0,0,1-1.119-.575,1.3,1.3,0,0,0-.976.287c-.427.374-1.316,2.009-2.206,2.812Zm-6.006-4.825a1.636,1.636,0,0,1,.287,2.1,17.254,17.254,0,0,0,5.69-2.636,6.32,6.32,0,0,0-2.036-.679c-.761-.043-1.229.79-1.281,1.612a5.37,5.37,0,0,1-1.489.549l0-.016a1.691,1.691,0,0,0-1.069-1.732,6.922,6.922,0,0,0-6.322.37c2.633-.99,5.4-.445,6.217.435Zm-10.468-.324a14.3,14.3,0,0,0,3.676-1.814,6.96,6.96,0,0,1,4.236-.706,6.388,6.388,0,0,0-5.032.213c-2.446,1.3-3.615,2-6.084,2.083a5.361,5.361,0,0,0,3.2.222Zm6.174-5.215A5.108,5.108,0,0,0,34,20.38a9.4,9.4,0,0,1,3.966-.554,8.906,8.906,0,0,1,3.961,1.761A5.634,5.634,0,0,0,38.247,19.206Zm8.624-2.713a10.092,10.092,0,0,0-1.158.207,5.169,5.169,0,0,1,1.114.348c.231.162.971.719.971.719s-.184-.232-.14-.348a6.061,6.061,0,0,1,.371-.558c-.371-.023-.9-.369-1.158-.369ZM57.089,34.562c.087.373-.314.6-.658.6,0,0,.087.8-.2,1s-.83-.087-.83-.087-.029.575-.459.718-.946-.373-.946-.373a3.414,3.414,0,0,1-1.691-.143,1.507,1.507,0,0,1-.833-.946,8.2,8.2,0,0,0-2.208-.63,14.008,14.008,0,0,1-4.654-1.016,21.568,21.568,0,0,0,2.566-1.747,24.538,24.538,0,0,0,1.954-1.819,8.9,8.9,0,0,0,1.913,1.4,9.358,9.358,0,0,0,2.178.745,1.081,1.081,0,0,1,.687.631.93.93,0,0,0,.833.488c.4-.029.918-.258,1.376,0a2.207,2.207,0,0,1,.973,1.176Z" fill="#0076b6"/>
</svg>
