<svg id="logo_losangelesrams" xmlns="http://www.w3.org/2000/svg" xmlns:xlink="http://www.w3.org/1999/xlink" width="60" height="60" viewBox="0 0 60 60">
  <defs>
    <linearGradient id="linear-gradient" x1="0.5" x2="0.5" y2="1" gradientUnits="objectBoundingBox">
      <stop offset="0.217" stop-color="#ffd100"/>
      <stop offset="0.296" stop-color="#ffd724"/>
      <stop offset="0.474" stop-color="#ffe87f"/>
      <stop offset="0.707" stop-color="#fff"/>
    </linearGradient>
    <linearGradient id="linear-gradient-2" y1="0.5" x2="1" y2="0.5" gradientUnits="objectBoundingBox">
      <stop offset="0" stop-color="#ffa300"/>
      <stop offset="0.134" stop-color="#ffa800"/>
      <stop offset="0.289" stop-color="#ffb600"/>
      <stop offset="0.453" stop-color="#ffcd00"/>
      <stop offset="0.478" stop-color="#ffd100"/>
    </linearGradient>
  </defs>
  <path id="Path_71" data-name="Path 71" d="M0,0H60V60H0Z" fill="none" fill-rule="evenodd"/>
  <g id="Group_40" data-name="Group 40" transform="translate(2.4 10.2)">
    <path id="Path_72" data-name="Path 72" d="M48.462,6.73a22.965,22.965,0,0,0-28.4-3.249h0a23.882,23.882,0,0,0-6.382,6.234l-.018.022H8.93L0,29.94H11.585A18.469,18.469,0,0,0,18.9,37.358a18.259,18.259,0,0,0,18.784-.707,1.776,1.776,0,0,0-.951-3.262,1.809,1.809,0,0,0-.522.078,12.335,12.335,0,0,1-3.56.521,12.172,12.172,0,0,1-9.093-4.047H34.375l1.858-2.589h7.211s-.22.558-.34.831l-.774,1.758h11.8l.251-.924A22.975,22.975,0,0,0,48.462,6.73Zm4.712,21.959H44.25a18.066,18.066,0,0,0,.914-2.589H35.58l-1.848,2.589H25.141L37.985,10.7h0a13.9,13.9,0,0,0-5.334-1.032q-.35,0-.7.018A13,13,0,0,0,19.429,22.45a12.473,12.473,0,0,0,.071,1.327h7.587l-2.259,3.179a3.742,3.742,0,0,1-3.1,1.73h-.618A13.307,13.307,0,0,0,32.65,35.239a13.582,13.582,0,0,0,3.921-.574.555.555,0,0,1,.16-.025A.524.524,0,0,1,37,35.6a17,17,0,0,1-24.642-6.914H1.923l7.823-17.7h4.52A17,17,0,0,1,27.334,4.364c.123,0,.247,0,.37,0a16.694,16.694,0,0,1,15.759,10.7l-4.448,6.232h6.772A18.18,18.18,0,0,0,20.729,4.543,21.721,21.721,0,0,1,53.175,28.688ZM28,22.526H20.683c0-.025,0-.05,0-.075A11.723,11.723,0,0,1,32.017,10.93c.212-.011.424-.016.632-.016a12.97,12.97,0,0,1,3.333.432Zm15.868-5.864a16.827,16.827,0,0,1,.613,3.372h-3.02Z" fill="#003594"/>
    <path id="Path_73" data-name="Path 73" d="M20.729,4.543A18.179,18.179,0,0,1,44.25,28.688h8.925A21.719,21.719,0,0,0,20.729,4.543" fill="url(#linear-gradient)"/>
    <path id="Path_74" data-name="Path 74" d="M43.461,15.059l-1.718,2.407a8.736,8.736,0,0,0-6.272-2.645q-.221,0-.439.011L37.985,10.7A12.554,12.554,0,0,1,43.461,15.059Zm1.7,11.04a18.176,18.176,0,0,0,.624-4.735v-.077H43.93a8.78,8.78,0,0,1-.061,4.812Z" fill="#d7d2cb"/>
    <path id="Path_75" data-name="Path 75" d="M37,35.6a17.007,17.007,0,0,1-17.493.658h0a16.417,16.417,0,0,1-2.95-5.784,16.44,16.44,0,0,1,6.689.95,13.4,13.4,0,0,0,9.408,3.812,13.582,13.582,0,0,0,3.921-.574.556.556,0,0,1,.16-.025A.524.524,0,0,1,37,35.6ZM19.5,23.779a12.441,12.441,0,0,1-.071-1.327A13,13,0,0,1,31.954,9.681,16.636,16.636,0,0,0,16.13,23.78Z" fill="#ffd100"/>
    <path id="Path_76" data-name="Path 76" d="M21.11,28.688H16.162a16.147,16.147,0,0,0,.39,1.789h0a16.44,16.44,0,0,1,6.689.95A12.913,12.913,0,0,1,21.11,28.688Z" fill="#ffa300"/>
    <path id="Path_77" data-name="Path 77" d="M12.354,28.688a17.021,17.021,0,0,0,2.313,3.592,5.672,5.672,0,0,1,1.885-1.8,16.147,16.147,0,0,1-.39-1.789Z" fill="#ff8200"/>
    <path id="Path_78" data-name="Path 78" d="M37.984,10.694a13.9,13.9,0,0,0-5.334-1.032q-.35,0-.7.018a16.636,16.636,0,0,0-15.823,14.1h-4.6L17.2,10.989H14.265A17,17,0,0,1,27.334,4.364c.123,0,.247,0,.37,0a16.694,16.694,0,0,1,15.759,10.7l0,0A12.554,12.554,0,0,0,37.984,10.694ZM16.552,30.477h0a5.672,5.672,0,0,0-1.885,1.8A17.085,17.085,0,0,0,19.5,36.261a16.419,16.419,0,0,1-2.95-5.784Z" fill="url(#linear-gradient-2)"/>
    <path id="Path_79" data-name="Path 79" d="M44.236,23.586a8.779,8.779,0,0,1-.367,2.513H35.58l-1.848,2.589H25.141l9.891-13.856q.218-.011.439-.011a8.737,8.737,0,0,1,6.272,2.645l-2.728,3.822H43.93a8.776,8.776,0,0,1,.306,2.3ZM9.745,10.989l-7.823,17.7H21.728a3.74,3.74,0,0,0,3.1-1.731l2.259-3.179H11.531L17.2,10.989Z" fill="#fff"/>
  </g>
</svg>
